<svg xmlns="http://www.w3.org/2000/svg" width="44.597" height="49.931" viewBox="0 0 44.597 49.931">
  <g id="__x0023_Layer_x0020_3" transform="translate(-1454 -2846)">
    <g id="_2586554314960" transform="translate(1454 2846)">
      <path id="Path_3" data-name="Path 3" d="M4091,7577h2.072c-.042,1.413-.017,2.737-.05,4.15a1.039,1.039,0,0,1-.957,1.057,1.009,1.009,0,0,1-1.04-1.073Zm1.557,2.836-.05.275-.025.075-.025.074-.034.075-.033.065-.033.067-.033.05-.025.041-.033.033-.034.025-.042.033-.066.033-.066.041-.042.026-.042.016-.033.017-.033.025-.083.041-.067.034-.05.024-.033.025-.083.033-.066.024-.05.017-.042.009-.034-.009V7581l.008-.025.017-.026.033-.024.033-.033.033-.042.05-.041.059-.05.266-.249.033-.034.033-.033.042-.042.033-.041.041-.041.042-.051.033-.058.042-.058.024-.034.017-.024.009-.034.017-.033.008-.024.017-.033v-.026l.008-.032-.008-.017.008-.024-.2.049h-.034l-.033.009-.041-.009h-.025l-.033-.008-.024-.008-.034-.009-.025-.017-.034-.017-.016-.018-.025-.016-.008-.025-.016-.017-.009-.024-.008-.024v-.126l.008-.033.009-.05.016-.066.025-.092.024-.1.026-.065.016-.066.025-.059.025-.058.024-.025.017-.034.017-.024.025-.024.017-.017.024-.017.025-.01.016-.008h.117l.042.008.034.01.042.017.033.017.034.024.033.024.033.025.025.034.025.032.025.033.016.034.009.04.017.043.008.042.009.041v.125l.008.042v.183l-.008.042v.083l-.009.041Z" transform="translate(-4069.06 -7537.64)" fill="#1c1b20" fill-rule="evenodd"/>
      <path id="Path_4" data-name="Path 4" d="M3742.508,4242h6.149l.049.016.042.01.05.016.042.025.034.024.042.025.033.024.025.033.025.033.025.033.017.042.016.034v.041l.008.041-.008.042v.042l-.016.041-.017.033-.025.033-.025.033-.025.034-.033.032-.042.026-.034.024-.042.017-.05.017-.042.017-.049.008-.05.009h-6.148l-.05-.009-.05-.008-.041-.017-.05-.017-.042-.017-.034-.024-.042-.026-.033-.032-.025-.034-.024-.033-.025-.033-.017-.033-.008-.041-.008-.042-.009-.042.009-.041.008-.041.008-.034.017-.042.025-.033.024-.033.025-.033.033-.024.042-.025.034-.024.042-.025.05-.016.041-.01.05-.016h.1Z" transform="translate(-3722.964 -4230.386)" fill="#1c1b20" fill-rule="evenodd"/>
      <path id="Path_5" data-name="Path 5" d="M3647.607,4081h7.338l.058.008.058.008.059.017.05.016.049.017.05.025.042.025.042.025.033.034.033.033.025.033.017.033.017.041.008.017v.017l.008.025v.033l-.008.025v.017l-.008.016-.017.042-.017.034-.025.033-.033.033-.033.033-.042.025-.042.024-.05.025-.049.017-.05.017-.059.017-.058.008-.058.008h-7.405l-.058-.008-.059-.008-.049-.017-.059-.017-.049-.017-.042-.025-.05-.024-.033-.025-.042-.033-.033-.033-.025-.033-.016-.034-.017-.042v-.016l-.008-.017v-.083l.008-.017v-.017l.017-.041.016-.033.025-.033.033-.033.042-.034.033-.025.05-.025.042-.025.049-.017.059-.016.049-.017.059-.008.058-.008Z" transform="translate(-3628.755 -4070.725)" fill="#1c1b20" fill-rule="evenodd"/>
      <path id="Path_6" data-name="Path 6" d="M3562.716,3923h8.544l.075.008h.075l.067.017.066.016.058.018.059.017.058.024.05.025.05.034.042.033.034.034.033.033.009.025.017.017.008.017.009.025.008.016v.134l-.008.016-.009.025-.008.017-.017.017-.009.017-.033.042-.034.033-.042.033-.05.025-.05.033-.058.024-.059.018-.058.016-.066.017-.067.008-.075.008h-8.694l-.066-.008-.075-.008-.058-.017-.066-.016-.058-.018-.05-.024-.058-.033-.042-.025-.042-.033-.033-.033-.033-.042-.017-.017-.009-.017-.008-.017-.009-.025-.008-.016-.008-.026v-.082l.008-.026.008-.016.009-.025.008-.017.009-.017.017-.025.033-.033.033-.034.042-.033.042-.034.058-.025.05-.024.058-.017.066-.018.058-.016.075-.017h.066Z" transform="translate(-3544.462 -3914.039)" fill="#1c1b20" fill-rule="evenodd"/>
      <path id="Path_7" data-name="Path 7" d="M3590.516,2854.586h8.378c-.932-2.279,3.62-4.592,1.406-6.056.141,1.181-.583,1.78-1.389,2.4l-.108.075c1.064-1.822,1.107-3.894-.924-5.009a2.254,2.254,0,0,1,.333,2.321c-.74,1.3-2.463,2.08-3.619,2.912-.116-1.814-.773-3.153-2.646-3.761a1.9,1.9,0,0,1,.208,2.529c-.832,1.323-2.454,2.429-1.988,4.352A.338.338,0,0,0,3590.516,2854.586Z" transform="translate(-3572.312 -2846)" fill="#1c1b20" fill-rule="evenodd"/>
      <path id="Path_8" data-name="Path 8" d="M2282.2,3937.41a6.759,6.759,0,0,0-1.556,2.938c-.5,2.362.475,3.328,2.479,1.8a7.917,7.917,0,0,0,2.088-3.12,4.883,4.883,0,0,0,2.154.449,12.316,12.316,0,0,0,.025,2.762c.724,3.22,2.646,3.5,3.444.184a9.488,9.488,0,0,0,.117-2.928,4.709,4.709,0,0,0,1.905-.383,6.073,6.073,0,0,0,1.914,2.853c2.205,1.714,3.111.434,2.7-1.8-.333-1.222-.558-1.456-1.764-2.878a11.064,11.064,0,0,0,1.822-1.7,7.679,7.679,0,0,0,2.961,1.422c2.172.474,3.253-.583,1.822-2.3a7.777,7.777,0,0,0-3.12-2.163,7.907,7.907,0,0,0,.2-2.2,12.7,12.7,0,0,0,3.777-.208c1.706-.542,2.621-2.213-.008-2.979a12.753,12.753,0,0,0-3.718-.108,13.53,13.53,0,0,0-.475-2.221,8.946,8.946,0,0,0,2.87-1.956c1.456-1.49.641-3.369-1.864-2.546a13.163,13.163,0,0,0-2.953,1.573,5.722,5.722,0,0,0-1.265-1.015,32.05,32.05,0,0,0,1.5-3.644c.392-1.656-.549-3.3-2.587-1.38-1.88,1.729-2.4,3.959-2.9,5.582a8.144,8.144,0,0,1,5.133,8.029,8.081,8.081,0,0,1-16.14-.324,8.446,8.446,0,0,1,5.025-7.663c-.923-2.845-1.448-3.868-2.7-5.25-2.471-2.263-3.253-.1-2.854,1.638a7.063,7.063,0,0,0,1.531,2.97,7.659,7.659,0,0,0-1.389,1.489,11.661,11.661,0,0,0-2.937-1.589c-1.48-.341-3.419.109-2.229,2.105a7.557,7.557,0,0,0,3.395,2.521,10.084,10.084,0,0,0-.158,2.022c-1.3.024-1.647-.034-3.153.075-1.7.083-3.495,1.789-1.207,3.044a9.26,9.26,0,0,0,4.368.533,5.792,5.792,0,0,0,.408,1.972,6.781,6.781,0,0,0-2.7,1.655c-1.9,2.271-.624,3.677,2.1,2.729a9.826,9.826,0,0,0,2.4-1.48A7.7,7.7,0,0,0,2282.2,3937.41Z" transform="translate(-2266.194 -3906.11)" fill="#1c1b20" fill-rule="evenodd"/>
      <path id="Path_9" data-name="Path 9" d="M6625.582,7719.006h0v.085l-.009.082-.008.075-.009.084-.017.074-.018.075-.024.075-.023.074-.06.15-.065.149-.067.158-.093.157-.031.06-.034.058-.05.059-.05.049-.042.034-.05.042-.05.032-.067.043-.082.041-.1.041-.132.051-.151.066-.257.091h-.076l-.007-.009v-.007l-.01-.017v-.033l.01-.018.025-.025.041-.049.058-.06.082-.073.31-.268.083-.066.074-.066.084-.073.075-.084.041-.052.042-.04.032-.042.025-.041.024-.034.018-.025.009-.023v-.085l-.009-.032-.008-.033-.026-.065-.033-.068-.017-.025-.024-.042-.033-.049-.051-.059-.05-.066-.058-.066-.059-.05-.058-.05-.05-.042-.041-.032-.009-.017-.008-.009-.01-.01V7719l.168-.392.216-.491.017-.024.024-.024.017-.025.024-.024v-.01l.009-.008.059.059.059.05.041.034.043.042.1.091.084.091.033.033.024.042.024.033.017.033.034.059.023.05.026.066.017.06.017.065.008.066v.066Z" transform="translate(-6580.985 -7677.466)" fill="#1c1b20" fill-rule="evenodd"/>
      <path id="Path_10" data-name="Path 10" d="M6461.542,7747.159h0l-.233.566-.084.24v.283l-.007.058v.274l-.01.067-.007.074-.009.084-.009.083-.008.083-.018.083-.008.059-.009.066-.025.083-.015.091-.025.1-.026.1-.024.1-.024.1.033.051h.016l.018-.009.009-.009h.016l.024-.024.025-.033.034-.042.042-.058.049-.075.059-.092.175-.373.034-.084.023-.083.034-.075.016-.074.018-.084.009-.083.008-.1.008-.108.024-.666v-.424l.018-.249v-.025l-.018-.018-.016-.016-.033.024-.009.018-.024.041-.018.024-.017.034Z" transform="translate(-6419.343 -7706.224)" fill="#1c1b20" fill-rule="evenodd"/>
      <path id="Path_11" data-name="Path 11" d="M6339.974,7298.566h0l.008.05v.05l-.008.049-.017.059-.016.059-.026.067-.025.065-.041.067-.033.075-.051.066-.058.058-.059.067-.041.032-.034.025-.032.017h-.042l-.025-.017-.042-.033-.048-.034-.052-.048-.049-.034-.042-.042-.041-.034-.042-.023-.043-.034-.024-.032-.032-.033-.025-.025-.024-.025-.009-.026v-.023l.025-.059.024-.049.017-.051.017-.042.042-.091.042-.092.041-.075.024-.057.042-.077.05-.065.042-.082.05-.076.024-.041.033-.051.025.025.024.025.042.024.042.024.1.083.075.067.058.058.05.051.025.041.026.05.016.059Z" transform="translate(-6298.357 -7260.959)" fill="#1c1b20" fill-rule="evenodd"/>
      <path id="Path_12" data-name="Path 12" d="M5908.974,7293.566h0l-.009-.058-.017-.06-.033-.049-.025-.051-.049-.048-.06-.052-.074-.074-.091-.073-.051-.035-.033-.017-.033-.024-.025-.024-.033.049-.024.033-.051.084-.042.074-.04.076-.051.073-.025.058-.032.076-.043.082-.049.1-.017.042-.018.041-.024.059-.023.058v.025l.007.026.024.024.026.024.032.033.033.033.034.024.042.033.04.043.051.033.05.041.05.043.042.032.041.033.025.008.024.009h.024l.034-.017.034-.024.032-.035.067-.065.049-.066.051-.067.032-.065.042-.066.025-.067.025-.065.024-.06.009-.058.007-.052v-.049Z" transform="translate(-5870.944 -7256.002)" fill="#1c1b20" fill-rule="evenodd"/>
      <path id="Path_13" data-name="Path 13" d="M5970.974,7440.567h0l-.008-.059-.017-.05-.033-.06-.025-.041-.049-.049-.06-.06-.074-.066-.1-.082-.042-.026-.033-.023-.033-.025-.025-.025-.042.051-.024.042-.042.074-.04.082-.051.075-.042.074-.024.06-.033.066-.043.091-.049.1-.017.033-.017.05-.025.05-.025.066v.017l.009.024.024.026.025.033.034.024.033.033.032.034.042.024.042.033.042.042.049.041.051.042.049.042.042.024.025.016.025.01.024-.01.033-.016.033-.024.034-.034.058-.059.059-.066.041-.065.041-.067.042-.074.025-.067.025-.059.024-.065.008-.051.009-.05v-.059Z" transform="translate(-5932.427 -7401.779)" fill="#1c1b20" fill-rule="evenodd"/>
      <path id="Path_14" data-name="Path 14" d="M5847.982,7447.567h0l-.017-.06-.017-.049-.024-.051-.034-.05-.041-.05-.059-.059-.082-.066-.093-.082-.05-.026-.033-.024-.024-.018-.033-.032-.033.059-.025.032-.042.083-.049.075-.041.076-.043.074-.033.059-.033.066-.042.092-.042.1-.017.033-.023.049-.018.05-.033.068.008.016.009.025.017.024.025.033.032.025.034.033.041.025.033.033.051.033.041.041.051.042.049.042.051.041.033.025.033.017.016.008h.018l.008-.008.017-.009.018-.008.032-.025.042-.033.059-.059.058-.065.042-.068.041-.065.033-.075.034-.066.024-.058.017-.059.017-.059v-.058l.008-.05Z" transform="translate(-5810.451 -7408.72)" fill="#1c1b20" fill-rule="evenodd"/>
      <path id="Path_15" data-name="Path 15" d="M5435.174,7441h0l-.074.1-.084.107-.092.125-.116.134-.107.115-.117.142-.15.158-.175.183-.049.066-.042.06-.041.058-.025.049-.025.052-.024.058-.025.059-.024.066.1-.1.108-.108.108-.1.108-.108.116-.124.108-.125.092-.117.091-.1.074-.091.066-.091.059-.084.042-.066.025-.051.016-.033.017-.041.009-.034.025-.066.016-.049V7441Z" transform="translate(-5400.888 -7402.771)" fill="#1c1b20" fill-rule="evenodd"/>
      <path id="Path_16" data-name="Path 16" d="M5235.376,7378.327h0l.008-.017.009-.008.049-.059.093-.1.133-.143.174-.19.084-.091.091-.1.083-.108.1-.109.092-.115.1-.115.1-.117.108-.125.175-.216.167-.2.167-.2.149-.19.142-.184.141-.174.126-.167.115-.158.116-.149.108-.15.1-.142.091-.134.084-.133.082-.124.084-.117.066-.115.024-.059.025-.033.009-.017.008-.008.009-.017h.009l.008.017.009.017.007.016v.017l-.007.06-.009.065-.017.05-.009.06-.017.106-.032.1-.043.1-.041.108-.05.1-.042.106-.059.109-.066.108-.066.124-.091.142-.116.166-.134.185-.083.107-.082.106-.094.117-.091.117-.092.125-.1.115-.1.125-.108.126-1.114,1.339h.407l.084.009h.082l.075.008.084.009.091.008.1.017.107.01.109.017.115.017.124.015.134.018.2.025.184.024.174.017.166.017.15.018.141.007.117.009.116.008.1.01.1.008h.449l.083-.008h0l.524-.01.257-.017.25-.024.25-.025.241-.032.233-.033.232-.041.225-.051.217-.05.124-.033.134-.034.125-.041.133-.042.124-.041.134-.049.133-.052.133-.049.135-.06.132-.05.142-.058.133-.067.275-.134.282-.142.125-.065.125-.066.125-.073.125-.076.124-.074.117-.074.124-.086.116-.082.117-.082.125-.093.116-.092.124-.091.125-.108.126-.107.133-.1.125-.117.1-.091.091-.092.074-.082.076-.076.058-.065.051-.066.041-.051.033-.05.009-.024.008-.019.009-.031.008-.034.008-.067.009-.081v-.076l.008-.073.009-.026.008-.025.009-.024.009-.017.065-.142.075-.134.066-.142.067-.14.042-.067.049-.093.059-.091.067-.116.016-.009.017-.008v.033l-.008.075-.009.107-.016.151-.008.074-.009.082-.017.084-.009.074-.017.084-.017.074-.018.084-.016.074-.024.1-.025.1-.026.093-.024.084-.033.074-.024.074-.033.067-.025.065-.059.084-.049.091-.059.092-.059.085-.066.09-.066.093-.075.082-.066.091-.083.092-.074.093-.093.091-.084.092-.09.082-.092.093-.1.091-.1.092-.208.183-.208.175-.217.158-.217.158-.224.158-.234.142-.224.142-.234.124-.257.133-.249.134-.258.115-.258.1-.259.108-.266.091-.259.093-.266.074-.267.075-.274.058-.274.058-.267.052-.282.041-.275.033-.281.026-.284.015v.01h0l-.226.008-.2.009h-.365l-.158-.009-.15-.018-.133-.007-.125-.026-.067-.017-.074-.017-.065-.017-.075-.024-.066-.024-.067-.035-.066-.024-.075-.033-.066-.032-.066-.033-.066-.041-.067-.043-.065-.041-.066-.05-.067-.041-.058-.06-.017.008-.009.019-.016.033-.018.041-.033.117-.05.156-.025.108-.032.109-.034.115-.041.117-.034.1-.049.091-.041.093-.052.092-.049.083-.059.073-.058.076-.06.066-.074.084-.074.065-.042.033-.033.024-.042.026-.042.024-.033.017-.041.025-.042.016-.041.009-.033.008-.042.009-.042.01-.042.008-.041-.008h-.074l-.042-.01-.033-.009-.034-.008-.041-.009-.024-.024-.034-.017-.033-.017-.032-.024-.026-.026-.032-.024-.034-.025-.023-.032-.025-.041-.026-.033-.024-.035-.024-.041-.017-.041-.042-.092-.033-.093-.024-.1-.025-.115-.009-.109-.017-.125v-.149l-.009-.033.009-.033-.009-.125v-.365l.009-.085v-.082l.009-.092v-.1l.008-.108v-.108l.009-.115.008-.126.034-.758.083-.963.35-1.033.016-.017.017-.008.01.008v.365l-.01.109-.007.133-.01.143-.016.157-.009.091v.1l-.008.107-.009.117-.008.133-.009.134-.017.148-.009.159-.017.15-.008.132-.008.117-.009.092-.008.074-.009.058v.125l-.008.066v.142Zm1.28.791v-.025l-.008-.017v-.024l-.008-.018-.01-.016-.016-.024-.018-.019-.016-.008-.042-.033-.051-.032-.058-.025-.066-.017-.067-.018-.073-.017-.059-.008-.067-.009-.059-.017h-.174l-.051.009-.041.008h-.041l-.033.017-.033.017-.034.018-.032.017-.018.025-.025.024-.023.033-.01.024-.016.034v.033l-.009.041v.15l.009.058.008.049.018.052.007.041.017.041.018.035.025.032.032.033.042.033.05.032.05.025.05.008.067.019h.142l.082-.01.083-.017.075-.015.059-.026.066-.025.051-.041.024-.017.024-.024.017-.026.025-.024.033-.033.024-.05.018-.043.025-.041.008-.041.008-.05.009-.051Z" transform="translate(-5203.542 -7336.328)" fill="#1c1b20" fill-rule="evenodd"/>
      <path id="Path_17" data-name="Path 17" d="M4917.382,7877.865h0l-.009.108-.017.108-.017.126-.033.123-.034.125-.041.117-.049.115-.051.108-.041.085-.05.073-.042.074-.051.068-.041.058-.05.059-.042.041-.049.05-.042.041-.05.035-.05.032-.05.025-.051.017-.058.016-.05.009h-.1l-.041-.009-.033-.008-.043-.008-.023-.017-.034-.017-.024-.024-.025-.026-.024-.033-.017-.033-.017-.033-.009-.034-.008-.041-.009-.05-.009-.049v-.052l.009-.074.009-.082.017-.076.017-.082.158-.343.149-.257-.042-.017-.033-.008h-.024v-.033l.017-.041.017-.06.033-.074.042-.117.05-.108.041-.082.033-.068.176-.406.016-.026.009-.023.016-.024.009-.019.017-.008.017-.017h.05l.034.008.041.025.05.024.05.026.042.033.041.024.034.026.075.066.059.073.024.033.023.033.026.043.017.033.017.032.008.041.017.052.008.041v.058l.009.06v.065Zm-.467.766h0l-.008-.033v-.032l-.008-.033-.009-.035-.017-.022-.017-.026-.024-.024-.018-.017-.033-.025-.033-.032-.033-.026-.041-.025-.042-.024-.042-.017-.033-.008-.033-.009-.009.009-.017.008-.008.007-.024.018-.042.058-.049.068-.026.041-.016.033-.018.041-.017.032-.017.033-.008.035v.116l.008.025.009.024.008.017.009.017.017.017.009.008.016.017.018.01.023.009.026.008.05.008.058.007h.033l.033-.007.024-.008.034-.008.033-.009.033-.018.033-.017.025-.017.034-.017.032-.024.017-.025.025-.024.008-.026.017-.023v-.026Z" transform="translate(-4887.196 -7835.143)" fill="#1c1b20" fill-rule="evenodd"/>
      <path id="Path_18" data-name="Path 18" d="M4396.765,7437.219h0l.507-.874h.009l.308-.556.017-.051.025-.058.016-.067.018-.058.009-.066.007-.067.009-.082.009-.076v-.082h0l.017-.366v-.051l.008-.091.009-.134.024-.159.017-.173.018-.134.016-.115.017-.086.017-.074.025-.082.025-.084.033-.1.033-.109.05-.116.059-.124.058-.15.017-.016.009-.01.009-.009h.017l.008.009v.116l-.008.109-.017.142-.025.175-.025.174-.025.142-.008.1-.008.075-.017.407v.108l.009.074v.076l.008.058.016.065.01.06.016.05.017.051.009.024.025.033.017.024.017.025.024.016.024.025.025.008.033.017.033.019.033.008.025.009.041.008h.125l.033-.082.024-.084.025-.084.025-.083.017-.024.025-.076.042-.106.059-.158.023-.06.034-.05.024-.058.024-.051.034-.05.024-.049.034-.041.032-.043.042-.058.051-.043.057-.041.051-.033.058-.024.05-.017.059-.019h.107l.051.01.041.017.042.017.018.017.017.008.017.019.016.015.009.017.008.026.009.017.009.024v.066l-.009.026-.009.016-.008.017-.009.016-.016.018-.025.024-.017.025-.025.008h-.049l-.068-.024-.041-.017-.049-.008h-.043l-.033-.009-.05.009-.033.008-.041.008-.042.025-.042.024-.032.024-.033.043-.034.041-.032.041-.034.043-.017.031-.024.043-.009.033-.016.041v.035l-.01.032v.023l.01.026.007.024.009.025.017.032.009.026.024.025.017.024.025.024.024.025.025.016.033.019.024.008.033.009.033.008h.084l.024-.008.025-.009.024-.018.024-.009.025-.016.017-.017.051-.05.049-.051.051-.066.05-.074.025-.043.025-.058.033-.058.041-.065.017-.043.017-.033.017-.018.017-.023.017-.017.017-.01h.025l.008.01.01.007.007.019v.024l-.007.017v.024l-.01.033-.008.033-.034.084-.032.092-.042.1-.05.125-.041.083-.034.075-.041.083-.042.084-.041.074-.042.075-.051.066-.042.075-.058.083-.059.075-.049.066-.059.067-.059.058-.065.05-.059.059-.058.042-.059.041-.067.024-.066.033-.066.026-.066.015-.059.01-.066.009-.074.006-.043-.006h-.049l-.042-.009h-.042l-.032-.018-.042-.016-.033-.018-.041-.017-.025-.024-.034-.017-.033-.025-.025-.032-.033-.025-.025-.042-.023-.033-.024-.033-.01-.034-.017-.023-.332.606.058.024.042.017.033.017.025.018.033.017.041.033.066.033.075.051.042.023.042.032.024.035.024.024.025.041.008.035.009.039.009.043-.009.024v.026l-.009.023L4398,7437l-.059.117-.049.116-.034.05-.025.06-.033.041-.024.049-.025.043-.033.041-.033.033-.033.033-.034.033-.032.032-.033.026-.034.025-.033.017-.041.024-.059.017-.066.024-.075.026-.091.023-.1.034-.108.024-.124.035-.109.039-.108.052-.1.041-.092.06-.091.058-.1.056-.092.077-.083.074-.075.066-.065.067-.06.065-.051.076-.049.065-.034.058-.023.068-.034.084-.025.08-.023.084-.025.093-.025.1-.025.09-.024.1-.017.107-.009.051-.016.091-.026.125-.016.167-.008.051-.009.064-.009.1-.008.125-.018.148-.016.176-.018.2-.017.226-.024.225-.017.207-.017.175-.008.158-.009.134-.009.1v.082l-.008.06-.051,1.321v.075l-.008.083v.084l-.008.091v.1l-.008.1-.009.1-.009.108-.017.2-.025.134-.007.049-.01.033-.008.017v.01l-.009.009h-.008v-.093l-.008-.091-.01-.067-.007-.074v-.1l-.009-.1-.009-.082-.008-.092v-.191l-.009-.051v-1.055l.009-.1v-.791l.008-.2.009-.2.009-.2.017-.2.016-.2.017-.2.025-.2.025-.2.033-.191.033-.183.033-.175.033-.166.033-.158.041-.148.043-.144.024-.1.032-.1.034-.1.041-.1.034-.093.049-.09.042-.084.051-.091.04-.084.051-.083.059-.073.05-.086.059-.074.049-.066.075-.075.067-.083.073-.073.067-.068.066-.058.059-.049Z" transform="translate(-4370.531 -7394.836)" fill="#1c1b20" fill-rule="evenodd"/>
      <path id="Path_19" data-name="Path 19" d="M2075.524,7505.191h0l-.225.642-.075.273v.059l-.009.059v.274l-.008.076v.225l-.008.082-.008.092-.008.092-.008.091-.009.092-.016.1-.009.067-.008.074-.017.092-.017.107-.025.108-.024.116-.025.108-.025.117.034.059h.024l.009-.01.017-.008.025-.024.025-.033.033-.051.042-.066.042-.092.05-.1.175-.433.033-.091.025-.092.025-.091.017-.084.017-.092.008-.1.017-.108v-.125l.025-.765.008-.474.017-.292v-.009l-.008-.017-.009-.025-.017-.016-.025.033-.017.024-.025.042-.017.033-.017.034Z" transform="translate(-2069.833 -7466.238)" fill="#1c1b20" fill-rule="evenodd"/>
      <path id="Path_20" data-name="Path 20" d="M1983.97,7850.176h0l.008-.042.008-.034v-.065l-.008-.018-.008-.008-.009-.009h-.016l-.009.009-.017.017-.016.017-.033.058-.05.084-.058.082-.042.067-.042.06-.033.032-.042.033-.058.033-.066.032-.075.042-.108.059-.083.042-.058.033-.033.017-.05.033-.041.033-.05.034-.033.033-.042.032-.033.034-.033.034-.025.031-.025.042-.033.042-.033.059-.033.066-.075.158-.091.191-.083.184-.067.141-.042.091-.033.051-.058.066-.083.083-.108.091-.125.1-.025.017-.042.024-.067.052-.092.058-.142.09-.1.067-.067.042-.033.017-.075.058-.067.051-.058.042-.058.041-.042.041-.033.033-.008.009-.008.017-.008.008v.018l.017.008.016.018.009.017h.025l.017.008h.025l.025.009.025-.009h.075l.083-.008.108-.017.133-.025.117-.025.108-.025.091-.023.067-.026.033-.017.033-.016.042-.025.033-.025.033-.017.033-.025.025-.024.033-.033.025-.033.025-.025.025-.033.033-.033.042-.075.042-.074.025-.05.025-.059.024-.066.034-.067.025-.082.042-.084.033-.1.042-.1.05-.108.042-.083.05-.075.041-.066.017-.025.025-.033.042-.024.033-.034.042-.023.033-.024.033-.018.025-.009.358-.183.042-.024.033-.025.033-.033.042-.034.033-.041.033-.049.033-.052.033-.058.033-.066.033-.066.033-.076.033-.082.025-.084.033-.091.033-.1Z" transform="translate(-1976.616 -7808.367)" fill="#1c1b20" fill-rule="evenodd"/>
      <path id="Path_21" data-name="Path 21" d="M2875.924,7656.533h0l.008.05-.008.05v.05l-.017.05-.016.059-.025.059-.025.059-.033.065-.033.067-.05.066-.05.059-.058.058-.033.033-.033.024-.017.009h-.008l-.017.009h-.008l-.024-.009-.025-.018-.033-.023-.05-.034-.042-.041-.05-.033-.042-.042-.041-.024-.042-.033-.033-.025-.034-.033-.024-.026-.025-.023-.017-.034-.008-.017-.008-.024.024-.05.025-.059.017-.041.016-.033.05-.1.034-.076.033-.066.025-.058.042-.067.042-.073.041-.075.042-.066.025-.033.033-.06.025.026.033.023.025.026.05.024.083.075.075.066.058.05.042.049.025.043.033.049.017.051Z" transform="translate(-2863.178 -7615.981)" fill="#1c1b20" fill-rule="evenodd"/>
      <path id="Path_22" data-name="Path 22" d="M2760.924,7663.533h0v.149l-.017.05-.016.06-.025.058-.025.06-.033.065-.042.066-.042.067-.05.058-.059.058-.033.033-.033.018-.017.017h-.058l-.025-.017-.042-.024-.042-.033-.05-.043-.042-.041-.042-.034-.042-.033-.042-.024-.033-.033-.033-.025-.025-.032-.025-.026-.017-.025-.017-.024v-.017l.025-.058.025-.051.017-.041.017-.033.042-.1.042-.084.033-.067.025-.05.042-.074.042-.065.042-.076.042-.076.025-.032.033-.05.025.024.025.025.033.017.042.024.092.075.074.068.059.056.042.043.025.049.025.042.016.058Z" transform="translate(-2749.134 -7622.924)" fill="#1c1b20" fill-rule="evenodd"/>
      <path id="Path_23" data-name="Path 23" d="M1659,7815.533h0l-.008-.023-.008-.026v-.025l-.009-.024-.016-.024-.009-.025-.017-.017-.017-.025-.05-.05-.058-.05-.075-.066-.091-.075-.042-.024-.042-.024-.058-.026-.058-.025-.025.052-.025.033-.042.058-.042.075-.042.074-.05.084-.216.481v.018l.008.017.008.017.008.008.025.034.033.024.042.024.05.026.042.032.042.024.016.009.05.034.067.049.091.075.033.018.017.017.025.009.008.007.025-.007.033-.025.033-.025.042-.034.042-.049.05-.059.05-.066.05-.076.033-.032.017-.042.017-.041.025-.042.008-.042.008-.042.009-.041v-.1Z" transform="translate(-1656.303 -7773.659)" fill="#1c1b20" fill-rule="evenodd"/>
      <path id="Path_24" data-name="Path 24" d="M1457.977,7688.972h0l-.025.092-.017.083-.017.066-.017.067-.017.058-.008.05-.025.066-.016.059-.033.091-.033.084-.033.083-.033.083-.042.084-.042.083-.041.082-.05.083-.05.092-.05.084-.058.083-.05.084-.058.074-.058.075-.058.083-.067.074-.1.108-.1.108-.1.092-.108.091-.1.084-.108.074-.108.067-.108.066-.058.025-.05.024-.058.025-.059.024-.058.018-.058.024-.058.016-.066.018-.058.008-.059.017-.066.008-.067.01-.058.008h-.133l-.067.008-.083-.008h-.067l-.075-.008-.066-.01-.067-.016-.067-.017-.058-.018-.067-.016-.058-.034-.05-.024-.058-.025-.05-.032-.05-.043-.042-.033-.05-.049-.042-.041-.033-.042-.041-.051-.033-.05-.033-.058-.033-.051-.025-.059-.025-.058-.017-.059-.025-.058-.008-.067-.017-.058-.017-.066-.008-.067-.008-.073v-.293l.008-.074.008-.083.017-.083.008-.076.017-.082.017-.083.025-.084.017-.084.025-.073.017-.075.025-.066.017-.067.025-.058.025-.059.05-.117.05-.116.058-.115.058-.116.042-.084.042-.084.05-.082.042-.083.05-.083.05-.076.042-.083.05-.083.033-.059.025-.05.025-.024.008-.017h.009l.008-.009h.017l.025.009v.008l.008.017-.008.033v.042l-.008.042-.009.049-.008.033-.008.042-.324.683-.058.142-.042.117-.042.1-.025.066-.017.05-.008.059-.017.049-.008.05-.009.06v.049l-.008.058v.125l.008.059v.067l.017.059.017.065.008.05.025.058.025.051.025.05.025.042.033.05.033.041.042.042.042.033.042.034.05.032.033.025.042.017.042.025.041.016.083.034.091.024.092.025.1.008.108.009.108.008.158-.008.142-.009.075-.008.067-.01.067-.007.058-.009.066-.017.058-.016.066-.026.067-.025.066-.023.059-.024.066-.034.067-.034.075-.041.066-.042.059-.041.066-.05.058-.042.058-.05.058-.058.05-.051.075-.091.083-.1.091-.117.1-.133.05-.091.05-.093.042-.083.033-.083.009-.05.016-.041.009-.051.008-.05.008-.05v-.058l.009-.06v-.058l.016-.683v-.083l.009-.083.017-.075.017-.075.017-.074.033-.083.033-.091.042-.109.191-.374.033-.042.016-.042.017-.023.009-.019.025-.023.033-.042.008.008.009.018.008.017.009.009.008.033-.008.033-.042.332-.05.474-.009.134v.124l-.017.117-.016.108v.059l-.017.058-.008.066-.017.067-.017.066-.017.083-.017.075Z" transform="translate(-1454 -7646.724)" fill="#1c1b20" fill-rule="evenodd"/>
      <path id="Path_25" data-name="Path 25" d="M2404.031,7682.079l-.316-.084-.058.067-.058.05-.042.049-.042.033-.058.067-.075.058-.083.067-.092.059-.091.058-.092.05-.091.059-.109.05-.1.042-.108.042-.116.041-.108.042-.092.024-.1.024-.1.034-.1.025-.116.024-.117.024-.116.025-.125.024-.133.025-.141.024-.15.025-.149.018-.15.024-.158.024-.167.018-.175.016-.175.018-.175.017-.166.008-.167.017h-.167l-.167.008-.166.009h-.558l-.1-.009-.108-.008h-.091l-.092-.008-.1-.009-.083-.008-.125-.017-.117-.025-.108-.025-.1-.024-.091-.034-.083-.033-.067-.032-.075-.042-.025-.017-.025-.024-.033-.033-.025-.025-.017-.034-.025-.032-.016-.042-.009-.033-.017-.083-.016-.092-.009-.092-.008-.1v-.116l.008-.059v-.067l.009-.059.008-.064v-.067l.008-.067.017-.065.009-.051.008-.049.008-.042.017-.024.016-.025h.009l.009-.009.008-.009h.025l.017.009.009.009.009.018.016.015.009.018.008.024v.033l.017.06.016.058.026.058.024.059.025.042.034.042.041.031.042.034.049.034.05.023.058.025.067.017.066.018.067.017.075.017.075.016.083.017.083.009.091.008.092.018.1.008.091.009.083.009h.1l.083.008.092.008h.649l.158-.008h.15l.15-.008h.158l.158-.009.149-.009.158-.008.167-.018.175-.017.175-.017.192-.023.2-.025.208-.025.217-.034.1-.016.1-.008.083-.017.091-.018.067-.008.067-.017.058-.01.058-.007.092-.017.091-.017.092-.024.075-.018.075-.025.075-.017.058-.016.067-.025.05-.025.05-.017.049-.017.034-.008.074-.033.067-.024.075-.043.075-.032.05-.034.058-.04.058-.051.05-.042h.008l.008.008.008.009v.009l.008.024.008.033-.008.033-.008.051h.067l.033-.009h.05l.008.009v-.009l.075-.009.067-.008.041-.009.034-.008.058-.024.05-.018.05-.017.033-.009.092-.041.083-.033.083-.033.067-.041.049-.025.042-.025.034-.024.024-.025.026-.034.008-.016.016-.024v-.025l-.016-.1-.017-.034-.025-.017-.017-.024-.034-.017-.025-.017h-.034l-.033-.009-.042-.008-.133.017-.016.009h-.017l-.025-.009h-.008l-.008-.017-.008-.017v-.033l.017-.025.016-.025.026-.025.017-.032.033-.033.041-.025.042-.033.041-.033.058-.042.067-.033.067-.032.067-.025.066-.025.067-.008.067-.009.075-.009.05.009h.108l.041.009.05.008.05.009.041.008.042.017.041.018.025.017.034.016.025.026.017.024.008.024.009.033.008.033v.025l-.008.033-.009.025-.008.024-.008.024-.008.025-.016.026-.017.032-.033.042-.017.032-.017.025v.017l-.008.009v.008l.008.009h.008l.008.017h.067l.033-.009.033-.008.042-.017.042-.018.041-.017.05-.017h0v-.008l.041-.024.041-.025.042-.025.042-.033.033-.033.042-.025.025-.025.025-.015.042-.043v-.008l.05-.051.058-.049.05-.051.059-.042.041-.024.041-.033.042-.017.034-.017.033-.016.033-.009.025-.009h.067l.042.009.05.017.05.024.05.025.042.017.025.008.026.009h.016l.017-.009.016-.017.034-.024.067-.066.082-.1.059-.074.05-.067.05-.058.041-.042.033-.024.033-.025.026-.024.033-.017.025-.018.033-.008.026-.009h.058l.041.009.058.017.074.017.075.018.075.016.05.009h.066l.008-.009.017-.016.025-.025.049-.059.076-.093.049-.058.059-.065.049-.059.05-.066.058-.059.05-.066.05-.066.058-.059.083-.065.074-.068.083-.065.075-.066.076-.042.058-.042.075-.033.058-.033.067-.017.058-.017.067-.009h.167l.042.009.041.017.033.009.034.016.025.017.026.025.025.025.016.024.017.025.009.034.007.032.009.033.007.042v.033l-.007.075-.009.058-.016.066-.017.067-.025.066-.034.074-.041.084-.05.082-.058.093-.05.091-.058.075-.05.074-.042.059-.05.05-.041.042-.042.049-.05.042-.033.034-.05.033-.042.032-.074.042-.067.051-.075.042-.059.032-.075.033-.059.033-.058.017-.058.025-.067.018-.058.016-.058.018-.059.008-.058.007-.067.01-.059.008h-.158l-.091-.008-.075-.01-.067-.015-.058-.018-.059-.025-.058-.024-.058-.034-.059-.032-.042-.025-.025-.025-.026-.017-.033-.023-.025-.043-.025.034-.017.016-.058.067-.05.049-.042.042-.025.026-.041.048-.042.042-.041.034-.034.033-.041.033-.034.025-.041.017-.033.016-.034.017-.041.009-.025.008h-.041l-.042-.008-.075-.025-.049-.016-.042-.017-.041-.009h-.067l-.026.009-.033.008-.033.017-.034.018-.033.016-.042.025-.041.024-.341.267h-.008v.009l-.058.041-.067.041-.033.017-.025.018-.034.008-.025.009-.059.016-.075.018h-.083l-.091.008-.025-.008h-.041l-.042-.009-.042-.009-.05-.016-.033-.009h-.076l-.033.009-.041.016-.05.035-.109.074-.091.065-.084.051-.058.041-.05.042-.049.033-.042.033-.041.034-.042.017-.033.024-.034.017-.041.017-.034.008-.033.009h-.033l-.025.008-.191-.05v-.016Zm5.75-2.438h0v-.009l-.009-.008-.008-.007-.017-.009-.033-.017-.058-.017-.059-.025-.058-.016-.05-.01h-.125l-.041.01-.042.007-.041.017-.033.018-.042.008-.042.025-.033.023-.034.025-.041.025-.042.025-.083.074-.074.074-.034.034-.033.033-.025.025-.033.033-.041.05-.042.041-.025.051-.025.042h.059l.058-.009.042-.009h.041l.116-.016.116-.025.109-.034.109-.032.1-.042.092-.043.091-.048.083-.052.05-.023.042-.034.041-.024.026-.033.025-.025.017-.024.009-.025Z" transform="translate(-2389.154 -7638.79)" fill="#1c1b20" fill-rule="evenodd"/>
      <path id="Path_26" data-name="Path 26" d="M3865.49,4427.14h2.438l.383-15.975.566-.8.258-.365H3864l.732,1.164Zm.441-15.975a.729.729,0,0,1,1.164.009l-.008,10.74h-.757Z" transform="translate(-3843.949 -4396.988)" fill="#1c1b20" fill-rule="evenodd"/>
      <path id="Path_27" data-name="Path 27" d="M2427.524,7461.191h0l-.225.641-.075.268v.125l-.008.065v.2l-.008.075.008.074-.008.082v.076l-.008.084-.008.091-.009.084-.008.091-.009.1-.016.09-.008.076-.009.074-.017.092-.016.107-.025.108-.025.117-.025.107-.024.117.033.059h.017l.008-.008.017-.009.008-.01.025-.024.034-.033.024-.041.042-.076.042-.082.05-.108.175-.424.033-.092.025-.091.025-.093.017-.084.017-.09.009-.1.017-.117v-.115l.025-.767.008-.474.017-.29v-.019l-.009-.017-.008-.017-.017-.017-.025.033-.017.026-.024.031-.017.043-.017.024Z" transform="translate(-2418.905 -7422.603)" fill="#1c1b20" fill-rule="evenodd"/>
      <path id="Path_28" data-name="Path 28" d="M2259.924,8318.533h0l.008.043v.058l-.008.051-.017.05-.016.049-.017.068-.033.058-.033.065-.033.066-.05.065-.05.06-.058.06-.033.032-.034.017-.016.01-.009.007-.016.007h-.008l-.016-.007-.033-.017-.033-.024-.05-.041-.042-.035-.05-.041-.042-.033-.041-.032-.042-.026-.033-.033-.025-.024-.033-.035-.026-.022-.016-.026-.008-.023-.008-.019.033-.058.017-.049.016-.043.025-.033.042-.1.033-.082.034-.069.025-.05.041-.065.042-.076.041-.072.042-.076.025-.034.033-.05.033.024.025.025.033.017.042.024.083.075.075.066.058.06.042.041.033.051.025.04.017.059Z" transform="translate(-2252.302 -8272.476)" fill="#1c1b20" fill-rule="evenodd"/>
      <path id="Path_29" data-name="Path 29" d="M2144.924,8325.533h0v.141l-.017.051-.017.066-.025.059-.025.059-.033.066-.042.066-.042.059-.05.057-.058.059-.034.033-.033.025-.017.008-.017.01h-.042l-.025-.018-.033-.025-.05-.041-.042-.033-.049-.041-.042-.033-.041-.033-.042-.033-.033-.025-.033-.033-.025-.025-.025-.025-.017-.023-.016-.027v-.016l.024-.059.025-.051.016-.039.017-.043.042-.09.042-.086.034-.066.024-.059.042-.066.042-.074.041-.066.042-.074.025-.033.033-.051.025.025.033.016.025.027.042.023.092.074.075.066.058.049.042.053.025.041.025.049.017.051Z" transform="translate(-2138.26 -8279.417)" fill="#1c1b20" fill-rule="evenodd"/>
      <path id="Path_30" data-name="Path 30" d="M3488.923,7433.534h0l.009.041-.009.049v.058l-.017.052-.016.049-.025.058-.025.068-.033.065-.042.067-.049.066-.041.059-.059.059-.042.032-.033.017-.008.01-.017.007h-.041l-.025-.017-.042-.024-.041-.041-.05-.042-.042-.034-.042-.033-.042-.032-.041-.025-.033-.034-.034-.024-.024-.033-.033-.025-.009-.024-.017-.026v-.015l.025-.06.025-.049.017-.042.016-.034.042-.1.042-.083.034-.067.024-.049.042-.074.042-.067.042-.076.041-.074.025-.033.034-.051.025.024.024.026.034.017.042.025.091.075.075.066.058.058.042.043.025.049.025.041.016.05Z" transform="translate(-3471.077 -7394.836)" fill="#1c1b20" fill-rule="evenodd"/>
    </g>
  </g>
</svg>
