<svg xmlns="http://www.w3.org/2000/svg" width="13.836" height="6.225" viewBox="0 0 13.836 6.225">
  <g id="Group_752" data-name="Group 752" transform="translate(-342 -342)">
    <path id="Vector" d="M11.738,4.4,6.569,9.566a.528.528,0,0,1-.748,0L2.655,6.4A.529.529,0,1,1,3.4,5.652L6.2,8.445l4.8-4.8a.529.529,0,1,1,.748.748Z" transform="translate(339.498 338.504)"/>
    <path id="Vector-2" data-name="Vector" d="M11.738,4.4,6.569,9.566a.528.528,0,0,1-.748,0L2.655,6.4A.529.529,0,1,1,3.4,5.652L6.2,8.445l4.8-4.8a.529.529,0,1,1,.748.748Z" transform="translate(343.945 338.504)"/>
  </g>
</svg>
