<svg id="Group_639" data-name="Group 639" xmlns="http://www.w3.org/2000/svg" width="15.229" height="15.229" viewBox="0 0 15.229 15.229">
  <path id="Vector" d="M9.74,15.229H5.49C1.643,15.229,0,13.586,0,9.74V5.49C0,1.643,1.643,0,5.49,0H9.74c3.846,0,5.49,1.643,5.49,5.49V9.74C15.229,13.586,13.586,15.229,9.74,15.229Z"/>
  <g id="vuesax_outline_arrow-square-left" data-name="vuesax/outline/arrow-square-left" transform="translate(5.477 4.585)">
    <g id="arrow-square-left" transform="translate(0 0)">
      <path id="Vector-2" data-name="Vector" d="M3.03,6.062a.525.525,0,0,1-.375-.156l-2.5-2.5a.534.534,0,0,1,0-.751l2.5-2.5A.531.531,0,1,1,3.405.9L1.28,3.03,3.405,5.155a.534.534,0,0,1,0,.751A.5.5,0,0,1,3.03,6.062Z" fill="#fff"/>
    </g>
  </g>
</svg>
