<svg xmlns="http://www.w3.org/2000/svg" width="12.754" height="13" viewBox="0 0 12.754 13">
  <g id="pdf2-svgrepo-com" transform="translate(-2.265 -2)">
    <path id="Path_506" data-name="Path 506" d="M15.946,2.072h0l2.583,2.693v10.24H8.879v.033h9.683V4.8L15.946,2.072" transform="translate(-3.543 -0.039)" fill="#909090"/>
    <path id="Path_507" data-name="Path 507" d="M15.876,2H8.808V14.967h9.683V4.727L15.875,2" transform="translate(-3.505)" fill="#f4f4f4"/>
    <path id="Path_508" data-name="Path 508" d="M5.232,3.5H2.265V6.67H11.6V3.5H5.232" transform="translate(0 -0.804)" fill="#7a7b7c"/>
    <path id="Path_509" data-name="Path 509" d="M11.716,6.551H2.395V3.379h9.321V6.551" transform="translate(-0.07 -0.739)" fill="#dd2025"/>
    <path id="Path_510" data-name="Path 510" d="M8.352,4.534H7.745V6.763h.477V6.011l.105.006a.948.948,0,0,0,.3-.054.663.663,0,0,0,.229-.135.568.568,0,0,0,.156-.211A.989.989,0,0,0,9.061,5.2a1.039,1.039,0,0,0-.053-.3.545.545,0,0,0-.319-.3,1,1,0,0,0-.19-.048,1.036,1.036,0,0,0-.148-.012M8.264,5.6H8.222V4.912h.09A.265.265,0,0,1,8.525,5a.427.427,0,0,1,.085.259c0,.114,0,.218-.1.291a.437.437,0,0,1-.243.053" transform="translate(-2.936 -1.357)" fill="#464648"/>
    <path id="Path_511" data-name="Path 511" d="M11.83,4.52c-.052,0-.1,0-.137.005l-.11,0H11.22V6.756h.426a1.243,1.243,0,0,0,.477-.081.794.794,0,0,0,.316-.228.9.9,0,0,0,.173-.348,1.731,1.731,0,0,0,.053-.441,2.05,2.05,0,0,0-.04-.523.825.825,0,0,0-.186-.34.757.757,0,0,0-.248-.186,1.12,1.12,0,0,0-.255-.083.6.6,0,0,0-.106-.008m-.084,1.828H11.7V4.924h.006a.493.493,0,0,1,.279.05.557.557,0,0,1,.15.186A.6.6,0,0,1,12.2,5.4c0,.1,0,.186,0,.255a1.358,1.358,0,0,1-.015.238.815.815,0,0,1-.078.232.525.525,0,0,1-.169.167.312.312,0,0,1-.193.049" transform="translate(-4.797 -1.349)" fill="#464648"/>
    <path id="Path_512" data-name="Path 512" d="M16.128,4.538H15V6.767h.477V5.883h.6V5.468h-.6V4.952h.65V4.538" transform="translate(-6.822 -1.36)" fill="#464648"/>
    <path id="Path_513" data-name="Path 513" d="M17.029,15.98s1.48-.268,1.48.237S17.592,16.517,17.029,15.98Zm-1.094.039a3.5,3.5,0,0,0-.684.227l.186-.418c.186-.418.378-.988.378-.988a6.6,6.6,0,0,0,.77,1.046,6.051,6.051,0,0,0-.65.134ZM15.349,13c0-.441.143-.561.253-.561s.236.053.24.436a5.008,5.008,0,0,1-.24,1.13,2.055,2.055,0,0,1-.254-1ZM13.19,17.883c-.454-.272.952-1.108,1.207-1.135C14.4,16.749,13.666,18.167,13.19,17.883Zm5.751-1.606c0-.046-.046-.56-.961-.539a6.606,6.606,0,0,0-1.139.08,5.823,5.823,0,0,1-.934-1.233,5.46,5.46,0,0,0,.289-1.439c-.013-.557-.147-.877-.574-.872s-.489.378-.433.935A4.322,4.322,0,0,0,15.5,14.3s-.2.614-.458,1.225-.439.931-.439.931a4.467,4.467,0,0,0-1.265.65c-.383.356-.538.63-.337.9.174.236.781.289,1.325-.423a10.469,10.469,0,0,0,.789-1.157s.828-.227,1.086-.289.569-.111.569-.111a2.49,2.49,0,0,0,1.486.734c.729-.027.694-.436.689-.481" transform="translate(-5.703 -5.504)" fill="#dd2025"/>
    <path id="Path_514" data-name="Path 514" d="M23.954,2.077V4.8h2.615Z" transform="translate(-11.619 -0.041)" fill="#909090"/>
    <path id="Path_515" data-name="Path 515" d="M24.031,2V4.727h2.615Z" transform="translate(-11.66)" fill="#f4f4f4"/>
    <path id="Path_516" data-name="Path 516" d="M8.275,4.457H7.668V6.686h.479V5.934l.106.006a.948.948,0,0,0,.3-.054.663.663,0,0,0,.229-.135.568.568,0,0,0,.154-.211.989.989,0,0,0,.049-.422,1.039,1.039,0,0,0-.053-.3.545.545,0,0,0-.319-.3,1,1,0,0,0-.191-.049,1.036,1.036,0,0,0-.148-.012M8.187,5.522H8.145V4.835h.09a.265.265,0,0,1,.213.084.427.427,0,0,1,.085.259c0,.114,0,.218-.1.291a.437.437,0,0,1-.243.053" transform="translate(-2.894 -1.316)" fill="#fff"/>
    <path id="Path_517" data-name="Path 517" d="M11.754,4.443c-.052,0-.1,0-.137.005l-.109,0h-.362V6.679h.426A1.243,1.243,0,0,0,12.05,6.6a.794.794,0,0,0,.316-.228.9.9,0,0,0,.173-.348,1.731,1.731,0,0,0,.053-.441,2.05,2.05,0,0,0-.04-.523.825.825,0,0,0-.186-.34.757.757,0,0,0-.248-.186,1.12,1.12,0,0,0-.255-.083.6.6,0,0,0-.106-.008M11.672,6.27h-.046V4.847h.006a.493.493,0,0,1,.279.05.557.557,0,0,1,.15.186.6.6,0,0,1,.066.244c0,.1,0,.186,0,.255a1.358,1.358,0,0,1-.015.238.815.815,0,0,1-.078.232.525.525,0,0,1-.169.167.312.312,0,0,1-.193.049" transform="translate(-4.758 -1.308)" fill="#fff"/>
    <path id="Path_518" data-name="Path 518" d="M16.051,4.461H14.923V6.69H15.4V5.806H16V5.391h-.6V4.875h.65V4.461" transform="translate(-6.781 -1.318)" fill="#fff"/>
  </g>
</svg>
