<svg xmlns="http://www.w3.org/2000/svg" width="13.765" height="13.766" viewBox="0 0 13.765 13.766">
  <path id="Union_46" data-name="Union 46" d="M1891.687-16981.936a3.365,3.365,0,0,1-2.383-.99,3.366,3.366,0,0,1-.995-2.389v-3.4a.55.55,0,0,1-.01-.105.561.561,0,0,1,.01-.1v-3.389a3.357,3.357,0,0,1,.995-2.385,3.369,3.369,0,0,1,2.383-.994h3.389a.91.91,0,0,1,.1-.01.917.917,0,0,1,.1.01h3.4a3.368,3.368,0,0,1,2.383.994,3.354,3.354,0,0,1,.992,2.385v3.432a.559.559,0,0,1,0,.061.633.633,0,0,1,0,.064v3.441a3.356,3.356,0,0,1-.992,2.389,3.343,3.343,0,0,1-2.383.99Zm6.99-1.174a2.28,2.28,0,0,0,2.214-2.213v-2.914h-5.129v5.127Zm-9.214-2.213a2.2,2.2,0,0,0,.651,1.563,2.208,2.208,0,0,0,1.56.65h2.928v-5.127h-5.139Zm11.429-4.076v-2.928a2.183,2.183,0,0,0-.654-1.561,2.2,2.2,0,0,0-1.56-.65h-2.915v5.139Zm-6.289,0v-5.139h-2.928a2.211,2.211,0,0,0-1.56.65,2.2,2.2,0,0,0-.651,1.561v2.928Z" transform="translate(-1888.3 16995.701)"/>
</svg>
