<svg id="vuesax_outline_copy" data-name="vuesax/outline/copy" xmlns="http://www.w3.org/2000/svg" width="12.394" height="12.395" viewBox="0 0 12.394 12.395">
  <g id="copy">
    <path id="Vector" d="M5.087,8H2.918C.9,8,0,7.106,0,5.087V2.918C0,.9.9,0,2.918,0H5.087C7.106,0,8,.9,8,2.918V5.087C8,7.106,7.106,8,5.087,8ZM2.918.775c-1.6,0-2.143.542-2.143,2.143V5.087c0,1.6.542,2.143,2.143,2.143H5.087c1.6,0,2.143-.542,2.143-2.143V2.918c0-1.6-.542-2.143-2.143-2.143Z" transform="translate(0.646 3.744)"/>
    <path id="Vector-2" data-name="Vector" d="M5.087,8H4.519a.39.39,0,0,1-.387-.387v-1.6c0-1.6-.542-2.143-2.143-2.143H.387A.39.39,0,0,1,0,3.486V2.918C0,.9.9,0,2.918,0H5.087C7.106,0,8,.9,8,2.918V5.087C8,7.106,7.106,8,5.087,8ZM4.906,7.23h.181c1.6,0,2.143-.542,2.143-2.143V2.918c0-1.6-.542-2.143-2.143-2.143H2.918c-1.6,0-2.143.542-2.143,2.143V3.1H1.988c2.019,0,2.918.9,2.918,2.918Z" transform="translate(3.744 0.646)"/>
    <path id="Vector-3" data-name="Vector" d="M0,0H12.394V12.394H0Z" fill="none" opacity="0"/>
  </g>
</svg>
