<svg id="vuesax_outline_document-text" data-name="vuesax/outline/document-text" xmlns="http://www.w3.org/2000/svg" width="15.114" height="15.114" viewBox="0 0 15.114 15.114">
  <g id="document-text">
    <path id="Vector" d="M8.659,13.539H4.88C1.461,13.539,0,12.078,0,8.659V4.88C0,1.461,1.461,0,4.88,0H8.029A.476.476,0,0,1,8.5.472a.476.476,0,0,1-.472.472H4.88C1.977.945.945,1.977.945,4.88V8.659c0,2.9,1.033,3.936,3.936,3.936H8.659c2.9,0,3.936-1.033,3.936-3.936V5.51a.472.472,0,1,1,.945,0V8.659C13.539,12.078,12.078,13.539,8.659,13.539Z" transform="translate(0.787 0.787)"/>
    <path id="Vector-2" data-name="Vector" d="M5.51,5.982H2.991C.838,5.982,0,5.144,0,2.99V.471A.467.467,0,0,1,.29.037a.476.476,0,0,1,.516.1L5.844,5.175a.473.473,0,0,1-.334.806ZM.945,1.611V2.99c0,1.625.422,2.047,2.047,2.047H4.37Z" transform="translate(8.344 0.788)"/>
    <path id="Vector-3" data-name="Vector" d="M4.251.945H.472A.476.476,0,0,1,0,.472.476.476,0,0,1,.472,0H4.251a.476.476,0,0,1,.472.472A.476.476,0,0,1,4.251.945Z" transform="translate(3.936 7.714)"/>
    <path id="Vector-4" data-name="Vector" d="M2.991.945H.472A.476.476,0,0,1,0,.472.476.476,0,0,1,.472,0H2.991a.476.476,0,0,1,.472.472A.476.476,0,0,1,2.991.945Z" transform="translate(3.936 10.233)"/>
    <path id="Vector-5" data-name="Vector" d="M0,0H15.114V15.114H0Z" fill="none" opacity="0"/>
  </g>
</svg>
