<svg xmlns="http://www.w3.org/2000/svg" width="16" height="16" viewBox="0 0 16 16">
  <g id="vuesax_bold_home-2" data-name="vuesax/bold/home-2" transform="translate(-620 -188)">
    <g id="home-2" transform="translate(620 188)">
      <path id="Vector" d="M11.48,3.063,7.816.5A3.087,3.087,0,0,0,4.325.583L1.138,3.069A3.276,3.276,0,0,0,0,5.384V9.771a2.945,2.945,0,0,0,2.938,2.944H9.794a2.939,2.939,0,0,0,2.938-2.937V5.466A3.244,3.244,0,0,0,11.48,3.063ZM6.843,10.171a.477.477,0,0,1-.954,0V8.264a.477.477,0,0,1,.954,0Z" transform="translate(1.634 1.644)" fill="#1c1b20"/>
      <path id="Vector-2" data-name="Vector" d="M0,0H16V16H0Z" transform="translate(16 16) rotate(180)" fill="none" opacity="0"/>
    </g>
  </g>
</svg>
