<svg id="vuesax_outline_microphone" data-name="vuesax/outline/microphone" xmlns="http://www.w3.org/2000/svg" width="17.825" height="17.826" viewBox="0 0 17.825 17.826">
  <g id="microphone" transform="translate(0 0)">
    <path id="Vector" d="M5.013,13.741A5.021,5.021,0,0,1,0,8.727V5.013a5.013,5.013,0,1,1,10.027,0V8.727A5.021,5.021,0,0,1,5.013,13.741Zm0-12.626a3.9,3.9,0,0,0-3.9,3.9V8.727a3.9,3.9,0,1,0,7.8,0V5.013A3.9,3.9,0,0,0,5.013,1.114Z" transform="translate(3.899 0.928)"/>
    <path id="Vector-2" data-name="Vector" d="M7.241,9.284A7.246,7.246,0,0,1,0,2.043V.557A.561.561,0,0,1,.557,0a.561.561,0,0,1,.557.557V2.043a6.127,6.127,0,1,0,12.255,0V.557a.557.557,0,1,1,1.114,0V2.043A7.246,7.246,0,0,1,7.241,9.284Z" transform="translate(1.671 7.613)"/>
    <path id="Vector-3" data-name="Vector" d="M4.638,1.467a.612.612,0,0,1-.193-.03,5.476,5.476,0,0,0-3.706,0A.556.556,0,0,1,.367.39a6.582,6.582,0,0,1,4.464,0,.557.557,0,0,1,.334.713A.551.551,0,0,1,4.638,1.467Z" transform="translate(6.213 4.646)"/>
    <path id="Vector-4" data-name="Vector" d="M3.28,1.3a.555.555,0,0,1-.149-.022,4.645,4.645,0,0,0-2.429,0A.558.558,0,0,1,.413.2,5.768,5.768,0,0,1,3.429.2.559.559,0,0,1,3.28,1.3Z" transform="translate(6.895 7.041)"/>
    <path id="Vector-5" data-name="Vector" d="M0,0H17.825V17.826H0Z" fill="none" opacity="0"/>
  </g>
</svg>
