<svg xmlns="http://www.w3.org/2000/svg" width="15.816" height="15.816" viewBox="0 0 15.816 15.816">
  <g id="vuesax_outline_global" data-name="vuesax/outline/global" transform="translate(-172 -252)">
    <g id="global" transform="translate(172 252)">
      <path id="Vector" d="M7.084,14.169a7.084,7.084,0,1,1,7.084-7.084A7.09,7.09,0,0,1,7.084,14.169Zm0-13.18a6.1,6.1,0,1,0,6.1,6.1A6.1,6.1,0,0,0,7.084.989Z" transform="translate(0.824 0.824)"/>
      <path id="Vector-2" data-name="Vector" d="M1.448,12.851H.789a.5.5,0,0,1-.494-.494.491.491,0,0,1,.481-.494A19.434,19.434,0,0,1,.776.989.491.491,0,0,1,.295.494.5.5,0,0,1,.789,0h.659a.506.506,0,0,1,.4.2.5.5,0,0,1,.066.448,18.418,18.418,0,0,0,0,11.553.5.5,0,0,1-.066.448A.519.519,0,0,1,1.448,12.851Z" transform="translate(4.483 1.483)"/>
      <path id="Vector-3" data-name="Vector" d="M.5,12.856a.443.443,0,0,1-.158-.026.491.491,0,0,1-.31-.626A18.418,18.418,0,0,0,.028.651.494.494,0,0,1,.964.335a19.321,19.321,0,0,1,0,12.172A.49.49,0,0,1,.5,12.856Z" transform="translate(9.389 1.477)"/>
      <path id="Vector-4" data-name="Vector" d="M6.425,1.945A19.227,19.227,0,0,1,.989,1.167.494.494,0,0,1,0,1.154V.495a.506.506,0,0,1,.2-.4A.5.5,0,0,1,.652.027,18.418,18.418,0,0,0,12.2.027a.5.5,0,0,1,.448.066.488.488,0,0,1,.2.4v.659a.5.5,0,0,1-.494.494.491.491,0,0,1-.494-.481A19.307,19.307,0,0,1,6.425,1.945Z" transform="translate(1.483 9.39)"/>
      <path id="Vector-5" data-name="Vector" d="M12.359,1.946a.443.443,0,0,1-.158-.026,18.418,18.418,0,0,0-11.553,0,.494.494,0,0,1-.626-.31A.5.5,0,0,1,.339.984a19.321,19.321,0,0,1,12.172,0,.491.491,0,0,1,.31.626A.48.48,0,0,1,12.359,1.946Z" transform="translate(1.48 4.48)"/>
      <path id="Vector-6" data-name="Vector" d="M0,0H15.816V15.816H0Z" fill="none" opacity="0"/>
    </g>
  </g>
</svg>
