<svg xmlns="http://www.w3.org/2000/svg" width="15.482" height="15.482" viewBox="0 0 15.482 15.482">
  <g id="vuesax_outline_folder-2" data-name="vuesax/outline/folder-2" transform="translate(-428 -188)">
    <g id="folder-2" transform="translate(428 188)">
      <path id="Vector" d="M10.16,13.869H3.709C.864,13.869,0,13,0,10.16V3.709C0,.864.864,0,3.709,0h.968A2,2,0,0,1,6.612.968l.968,1.29c.213.284.245.323.645.323H10.16c2.845,0,3.709.864,3.709,3.709v3.87C13.869,13,13,13.869,10.16,13.869ZM3.709.968C1.4.968.968,1.406.968,3.709V10.16c0,2.3.432,2.742,2.742,2.742H10.16c2.309,0,2.742-.439,2.742-2.742V6.29c0-2.3-.432-2.742-2.742-2.742H8.225a1.481,1.481,0,0,1-1.419-.71l-.968-1.29A1.085,1.085,0,0,0,4.677.968Z" transform="translate(0.806 0.806)"/>
      <path id="Vector-2" data-name="Vector" d="M8.225,3.793a.487.487,0,0,1-.484-.484v-.89C7.741,1.4,7.309.968,6.29.968H.484A.487.487,0,0,1,0,.484.487.487,0,0,1,.484,0H6.29A2.181,2.181,0,0,1,8.709,2.419v.89A.487.487,0,0,1,8.225,3.793Z" transform="translate(4.677 0.806)"/>
      <path id="Vector-3" data-name="Vector" d="M0,0H15.482V15.482H0Z" fill="none" opacity="0"/>
    </g>
  </g>
</svg>
