<svg xmlns="http://www.w3.org/2000/svg" width="17.652" height="17.652" viewBox="0 0 17.652 17.652">
  <g id="vuesax_bold_people" data-name="vuesax/bold/people" transform="translate(-620 -252)">
    <g id="people" transform="translate(620 252)">
      <path id="Vector" d="M0,0H17.652V17.652H0Z" fill="none" opacity="0"/>
      <path id="Vector-2" data-name="Vector" d="M2.2,4.244a.543.543,0,0,0-.154,0,2.129,2.129,0,1,1,.154,0Z" transform="translate(10.694 1.471)"/>
      <path id="Vector-3" data-name="Vector" d="M3.082,3.451a4.567,4.567,0,0,1-3.045.618A4.8,4.8,0,0,0,.471,2.091,4.519,4.519,0,0,0,0,.046a4.587,4.587,0,0,1,3.074.61A1.558,1.558,0,0,1,3.082,3.451Z" transform="translate(12.21 7.361)"/>
      <path id="Vector-4" data-name="Vector" d="M2.045,4.244a.543.543,0,0,1,.154,0,2.122,2.122,0,1,0-.154,0Z" transform="translate(2.692 1.471)"/>
      <path id="Vector-5" data-name="Vector" d="M3.35,2.091a4.79,4.79,0,0,0,.434,2A4.545,4.545,0,0,1,.872,3.459a1.562,1.562,0,0,1,0-2.8A4.517,4.517,0,0,1,3.814.031,4.676,4.676,0,0,0,3.35,2.091Z" transform="translate(1.467 7.36)"/>
      <path id="Vector-6" data-name="Vector" d="M2.626,5.053a.831.831,0,0,0-.191,0,2.538,2.538,0,1,1,.191,0Z" transform="translate(6.289 6.62)"/>
      <path id="Vector-7" data-name="Vector" d="M.833.634a1.51,1.51,0,0,0,0,2.7,4.494,4.494,0,0,0,4.6,0,1.51,1.51,0,0,0,0-2.7A4.494,4.494,0,0,0,.833.634Z" transform="translate(5.691 12.561)"/>
    </g>
  </g>
</svg>
