<svg id="vuesax_bold_send" data-name="vuesax/bold/send" xmlns="http://www.w3.org/2000/svg" width="17.826" height="17.826" viewBox="0 0 17.826 17.826">
  <g id="send">
    <path id="Vector" d="M2.139,4.092,8.5.913C12.768-1.227,14.521.526,12.382,4.8L11.736,6.09a1.353,1.353,0,0,0,0,1.2l.646,1.285c2.139,4.271.394,6.024-3.885,3.885L2.139,9.276C-.713,7.85-.713,5.518,2.139,4.092Zm2.4,3.149H8.549a.557.557,0,1,0,0-1.114H4.538a.557.557,0,1,0,0,1.114Z" transform="translate(2.265 2.229)"/>
    <path id="Vector-2" data-name="Vector" d="M0,17.826H17.826V0H0Z" transform="translate(0 0)" fill="none" opacity="0"/>
  </g>
</svg>
