<svg xmlns="http://www.w3.org/2000/svg" width="15.482" height="15.482" viewBox="0 0 15.482 15.482">
  <g id="vuesax_outline_timer" data-name="vuesax/outline/timer" transform="translate(0 0)">
    <g id="timer" transform="translate(0 0)">
      <path id="Vector" d="M6.128,12.257a6.128,6.128,0,1,1,6.128-6.128A6.134,6.134,0,0,1,6.128,12.257Zm0-11.289a5.161,5.161,0,1,0,5.161,5.161A5.167,5.167,0,0,0,6.128.968Z" transform="translate(1.613 2.419)"/>
      <path id="Vector-2" data-name="Vector" d="M.484,4.193A.487.487,0,0,1,0,3.709V.484A.487.487,0,0,1,.484,0,.487.487,0,0,1,.968.484V3.709A.487.487,0,0,1,.484,4.193Z" transform="translate(7.257 4.677)"/>
      <path id="Vector-3" data-name="Vector" d="M4.354.968H.484A.487.487,0,0,1,0,.484.487.487,0,0,1,.484,0h3.87a.487.487,0,0,1,.484.484A.487.487,0,0,1,4.354.968Z" transform="translate(5.322 0.806)"/>
      <path id="Vector-4" data-name="Vector" d="M0,0H15.482V15.482H0Z" fill="none" opacity="0"/>
    </g>
  </g>
</svg>
