<svg xmlns="http://www.w3.org/2000/svg" width="16" height="16" viewBox="0 0 16 16">
  <g id="vuesax_bold_teacher" data-name="vuesax/bold/teacher" transform="translate(-172 -252)">
    <path id="Vector" d="M7.473.114a.666.666,0,0,1,1.033.56v.86a2.285,2.285,0,0,1-1.453,2.02l-2.127.707a2.434,2.434,0,0,1-1.347,0L1.453,3.554A2.274,2.274,0,0,1,0,1.534V.668A.666.666,0,0,1,1.027.108L2.4,1a3.365,3.365,0,0,0,1.86.527A3.365,3.365,0,0,0,6.12,1Z" transform="translate(175.747 262.312)" fill="#1c1b20"/>
    <path id="Vector-2" data-name="Vector" d="M11.6,2.975,7.6.355a2.607,2.607,0,0,0-2.627,0L.965,2.975a2.124,2.124,0,0,0,0,3.56l1.067.693,2.947,1.92a2.607,2.607,0,0,0,2.627,0l2.927-1.92.913-.6v2.04a.5.5,0,0,0,1,0V5.388A2.117,2.117,0,0,0,11.6,2.975Z" transform="translate(173.722 253.332)" fill="#1c1b20"/>
    <path id="Vector-3" data-name="Vector" d="M0,0H16V16H0Z" transform="translate(188 268) rotate(180)" fill="none" opacity="0"/>
  </g>
</svg>
