<svg id="vuesax_outline_teacher" data-name="vuesax/outline/teacher" xmlns="http://www.w3.org/2000/svg" width="15.482" height="15.482" viewBox="0 0 15.482 15.482">
  <g id="teacher">
    <path id="Vector" d="M6.573,10.161a2.887,2.887,0,0,1-1.535-.419L1.155,7.206a2.54,2.54,0,0,1,0-4.258L5.045.42A3,3,0,0,1,8.115.427l3.864,2.535a2.535,2.535,0,0,1,0,4.245L8.115,9.742A2.837,2.837,0,0,1,6.573,10.161Zm0-9.192a1.809,1.809,0,0,0-1,.264L1.69,3.762a1.567,1.567,0,0,0,0,2.632L5.573,8.929a2.069,2.069,0,0,0,2.013,0L11.45,6.394a1.575,1.575,0,0,0,0-2.632L7.586,1.226A1.969,1.969,0,0,0,6.573.968Z" transform="translate(1.174 0.806)"/>
    <path id="Vector-2" data-name="Vector" d="M4.6,6.722a2.647,2.647,0,0,1-.806-.116L1.735,5.922A2.666,2.666,0,0,1,0,3.509L.006.484A.487.487,0,0,1,.49,0,.487.487,0,0,1,.974.484L.968,3.509a1.735,1.735,0,0,0,1.077,1.5L4.1,5.69a1.993,1.993,0,0,0,.993,0l2.058-.684a1.734,1.734,0,0,0,1.077-1.49V.523a.484.484,0,1,1,.968,0V3.516A2.683,2.683,0,0,1,7.464,5.928l-2.058.684A2.867,2.867,0,0,1,4.6,6.722Z" transform="translate(3.141 7.954)"/>
    <path id="Vector-3" data-name="Vector" d="M.484,4.838A.487.487,0,0,1,0,4.354V.484A.487.487,0,0,1,.484,0,.487.487,0,0,1,.968.484v3.87A.487.487,0,0,1,.484,4.838Z" transform="translate(13.321 5.322)"/>
    <path id="Vector-4" data-name="Vector" d="M0,0H15.482V15.482H0Z" fill="none" opacity="0"/>
  </g>
</svg>
