<svg xmlns="http://www.w3.org/2000/svg" width="15.482" height="15.482" viewBox="0 0 15.482 15.482">
  <g id="vuesax_outline_graph" data-name="vuesax/outline/graph" transform="translate(-300 -188)">
    <g id="graph" transform="translate(300 188)">
      <path id="Vector" d="M4.561,7.023H2.419C.813,7.023,0,6.114,0,4.314V2.462A2.565,2.565,0,0,1,.761.347,2.916,2.916,0,0,1,3.38.243a5.1,5.1,0,0,1,3.4,3.4,2.9,2.9,0,0,1-.1,2.613A2.55,2.55,0,0,1,4.561,7.023ZM1.955.966a1,1,0,0,0-.606.155C1.1,1.308.974,1.746.974,2.462V4.32c0,1.445.555,1.742,1.451,1.742H4.567c.71,0,1.148-.123,1.342-.374.226-.3.206-.89-.045-1.761A4.176,4.176,0,0,0,3.122,1.185,4.1,4.1,0,0,0,1.955.966Z" transform="translate(7.257 1.202)"/>
      <path id="Vector-2" data-name="Vector" d="M6.335,12.575A6.347,6.347,0,0,1,5.071.009a.49.49,0,0,1,.574.374.49.49,0,0,1-.374.574,5.382,5.382,0,1,0,6.36,6.335.483.483,0,0,1,.948.187A6.355,6.355,0,0,1,6.335,12.575Z" transform="translate(0.806 2.1)"/>
      <path id="Vector-3" data-name="Vector" d="M0,0H15.482V15.482H0Z" fill="none" opacity="0"/>
    </g>
  </g>
</svg>
