<svg id="vuesax_outline_user" data-name="vuesax/outline/user" xmlns="http://www.w3.org/2000/svg" width="15.482" height="15.482" viewBox="0 0 15.482 15.482">
  <g id="user">
    <path id="Vector" d="M3.709,7.418A3.709,3.709,0,1,1,7.418,3.709,3.714,3.714,0,0,1,3.709,7.418Zm0-6.451A2.742,2.742,0,1,0,6.451,3.709,2.748,2.748,0,0,0,3.709.968Z" transform="translate(4.032 0.806)"/>
    <path id="Vector-2" data-name="Vector" d="M11.566,5.483A.487.487,0,0,1,11.082,5c0-2.226-2.271-4.032-5.057-4.032S.968,2.774.968,5a.487.487,0,0,1-.484.484A.487.487,0,0,1,0,5C0,2.245,2.7,0,6.025,0S12.05,2.245,12.05,5A.487.487,0,0,1,11.566,5.483Z" transform="translate(1.716 9.192)"/>
    <path id="Vector-3" data-name="Vector" d="M0,0H15.482V15.482H0Z" fill="none" opacity="0"/>
  </g>
</svg>
