<svg id="vuesax_outline_chart" data-name="vuesax/outline/chart" xmlns="http://www.w3.org/2000/svg" width="15.482" height="15.482" viewBox="0 0 15.482 15.482">
  <g id="chart">
    <path id="Vector" d="M13.385.968H.484A.487.487,0,0,1,0,.484.487.487,0,0,1,.484,0h12.9a.487.487,0,0,1,.484.484A.487.487,0,0,1,13.385.968Z" transform="translate(0.806 13.708)"/>
    <path id="Vector-2" data-name="Vector" d="M3.387,13.869H.484A.487.487,0,0,1,0,13.385V1.774A1.573,1.573,0,0,1,1.645,0h.581A1.573,1.573,0,0,1,3.87,1.774V13.385A.487.487,0,0,1,3.387,13.869ZM.968,12.9H2.9V1.774c0-.742-.348-.806-.677-.806H1.645c-.329,0-.677.065-.677.806V12.9Z" transform="translate(5.806 0.806)"/>
    <path id="Vector-3" data-name="Vector" d="M3.064,10H.484A.487.487,0,0,1,0,9.515V1.774C0,.664.568,0,1.516,0h.516C2.98,0,3.548.664,3.548,1.774V9.515A.487.487,0,0,1,3.064,10Zm-2.1-.968H2.58V1.774c0-.806-.355-.806-.548-.806H1.516c-.194,0-.548,0-.548.806V9.031Z" transform="translate(1.451 4.677)"/>
    <path id="Vector-4" data-name="Vector" d="M3.064,6.773H.484A.487.487,0,0,1,0,6.29V1.774C0,.664.568,0,1.516,0h.516C2.98,0,3.548.664,3.548,1.774V6.29A.487.487,0,0,1,3.064,6.773Zm-2.1-.968H2.58V1.774c0-.806-.355-.806-.548-.806H1.516c-.194,0-.548,0-.548.806V5.806Z" transform="translate(10.483 7.902)"/>
    <path id="Vector-5" data-name="Vector" d="M0,0H15.482V15.482H0Z" fill="none" opacity="0"/>
  </g>
</svg>
