<svg xmlns="http://www.w3.org/2000/svg" width="10.857" height="10.857" viewBox="0 0 10.857 10.857">
  <g id="vuesax_outline_candle-2" data-name="vuesax/outline/candle-2" transform="translate(-428 -254)">
    <g id="candle-2" transform="translate(428 254)">
      <path id="Vector" d="M3.506.679H.339A.342.342,0,0,1,0,.339.342.342,0,0,1,.339,0H3.506a.342.342,0,0,1,.339.339A.342.342,0,0,1,3.506.679Z" transform="translate(6.447 7.578)"/>
      <path id="Vector-2" data-name="Vector" d="M1.7.679H.339A.342.342,0,0,1,0,.339.342.342,0,0,1,.339,0H1.7a.342.342,0,0,1,.339.339A.342.342,0,0,1,1.7.679Z" transform="translate(0.565 7.578)"/>
      <path id="Vector-3" data-name="Vector" d="M1.7.679H.339A.342.342,0,0,1,0,.339.342.342,0,0,1,.339,0H1.7a.342.342,0,0,1,.339.339A.342.342,0,0,1,1.7.679Z" transform="translate(8.256 2.601)"/>
      <path id="Vector-4" data-name="Vector" d="M3.506.679H.339A.342.342,0,0,1,0,.339.342.342,0,0,1,.339,0H3.506a.342.342,0,0,1,.339.339A.342.342,0,0,1,3.506.679Z" transform="translate(0.565 2.601)"/>
      <path id="Vector-5" data-name="Vector" d="M3.958,3.393H1.244A1.144,1.144,0,0,1,0,2.149v-.9A1.144,1.144,0,0,1,1.244,0H3.958A1.144,1.144,0,0,1,5.2,1.244v.9A1.144,1.144,0,0,1,3.958,3.393ZM1.244.679c-.4,0-.565.163-.565.565v.9c0,.4.163.565.565.565H3.958c.4,0,.565-.163.565-.565v-.9c0-.4-.163-.565-.565-.565Z" transform="translate(1.923 6.22)"/>
      <path id="Vector-6" data-name="Vector" d="M3.958,3.393H1.244A1.144,1.144,0,0,1,0,2.149v-.9A1.144,1.144,0,0,1,1.244,0H3.958A1.144,1.144,0,0,1,5.2,1.244v.9A1.144,1.144,0,0,1,3.958,3.393ZM1.244.679c-.4,0-.565.163-.565.565v.9c0,.4.163.565.565.565H3.958c.4,0,.565-.163.565-.565v-.9c0-.4-.163-.565-.565-.565Z" transform="translate(3.732 1.244)"/>
      <path id="Vector-7" data-name="Vector" d="M0,0H10.857V10.857H0Z" fill="none" opacity="0"/>
    </g>
  </g>
</svg>
