<svg xmlns="http://www.w3.org/2000/svg" width="13.305" height="13" viewBox="0 0 13.305 13">
  <g id="word2-svgrepo-com" transform="translate(-2 -2.322)">
    <path id="Path_503" data-name="Path 503" d="M9.857,2.322V3.532c1.615.009,3.383-.017,5,.009a.372.372,0,0,1,.433.409c.026,2.977-.006,6.125.015,9.1-.01.19,0,.531-.025.721-.038.242-.145.288-.388.321-.136.019-.363.016-.5.022-1.327-.007-2.652-.005-3.979,0H9.857v1.21L2,14.111V3.534L9.857,2.322" fill="#283c82"/>
    <path id="Path_504" data-name="Path 504" d="M18.536,5.822h4.989V15.5H18.536V14.286h3.929v-.6H18.536v-.755h3.929v-.6H18.536v-.755h3.929v-.6H18.536v-.755h3.929V9.6H18.536V8.845h3.929v-.6H18.536V7.485h3.929v-.6H18.536V5.822" transform="translate(-8.679 -1.837)" fill="#fff"/>
    <path id="Path_505" data-name="Path 505" d="M6.488,11.246c.285-.017.574-.029.861-.044.2,1.02.407,2.039.624,3.055.171-1.049.36-2.095.543-3.142.3-.01.6-.027.905-.048-.342,1.464-.641,2.941-1.014,4.4-.252.132-.63-.006-.929.015-.2-1-.435-2-.615-3-.177.979-.407,1.945-.609,2.915q-.435-.023-.874-.053c-.251-1.33-.545-2.651-.78-3.984.258-.012.518-.023.777-.032.156.963.333,1.921.468,2.885.213-.988.431-1.977.642-2.965" transform="translate(-1.365 -4.59)" fill="#fff"/>
  </g>
</svg>
