<svg xmlns="http://www.w3.org/2000/svg" width="11.092" height="13.864" viewBox="0 0 11.092 13.864">
  <g id="_9055322_bxs_file_pdf_icon" data-name="9055322_bxs_file_pdf_icon" transform="translate(-4 -2)">
    <path id="Path_1" data-name="Path 1" d="M8.153,14.68a1.038,1.038,0,0,0-.258.025v.817a.944.944,0,0,0,.209.016c.332,0,.537-.168.537-.451C8.641,14.833,8.465,14.68,8.153,14.68Zm2.417.008a1.279,1.279,0,0,0-.282.025v1.809a1.132,1.132,0,0,0,.217.012.857.857,0,0,0,.935-.968A.793.793,0,0,0,10.57,14.688Z" transform="translate(-1.195 -3.89)"/>
    <path id="Path_2" data-name="Path 2" d="M10.932,2H5.386A1.386,1.386,0,0,0,4,3.386V14.478a1.386,1.386,0,0,0,1.386,1.386h8.319a1.386,1.386,0,0,0,1.386-1.386V6.159ZM7.811,11.837a1.285,1.285,0,0,1-.9.291,1.546,1.546,0,0,1-.214-.012V13.1H6.08V10.376a5.24,5.24,0,0,1,.845-.057,1.329,1.329,0,0,1,.846.221.81.81,0,0,1,.3.64A.889.889,0,0,1,7.811,11.837Zm2.639.939a1.985,1.985,0,0,1-1.276.357,5.341,5.341,0,0,1-.71-.042V10.376a5.509,5.509,0,0,1,.845-.058,1.778,1.778,0,0,1,1.132.3,1.223,1.223,0,0,1,.468,1.043A1.4,1.4,0,0,1,10.45,12.776Zm2.561-1.924H11.95v.632h.993v.509H11.95V13.1h-.628V10.339h1.69v.513Zm-2.08-4h-.693V3.386l3.466,3.466Z"/>
  </g>
</svg>
