<svg xmlns="http://www.w3.org/2000/svg" width="26.436" height="29.598" viewBox="0 0 26.436 29.598">
  <g id="__x0023_Layer_x0020_3" transform="translate(-1454 -2846)">
    <g id="_2586554314960" transform="translate(1454 2846)">
      <path id="Path_3" data-name="Path 3" d="M4091,7577h1.228c-.025.838-.01,1.623-.03,2.46a.616.616,0,0,1-.567.626.6.6,0,0,1-.616-.636Zm.923,1.681-.03.163-.015.045-.015.044-.02.044-.02.039-.02.04-.02.03-.015.024-.02.02-.02.015-.025.02-.039.02-.04.024-.024.016-.025.009-.02.01-.02.015-.05.024-.04.02-.03.015-.02.015-.049.02-.039.015-.03.01-.025,0-.02,0v0l0-.015.01-.016.02-.015.02-.02.02-.025.03-.024.035-.029.158-.148.02-.02.02-.02.025-.025.02-.024.024-.024.025-.03.02-.034.025-.034.014-.02.01-.015.005-.02.01-.02.005-.015.01-.02v-.015l0-.02,0-.01,0-.015-.118.029h-.02l-.02.005-.024-.005h-.015l-.02,0-.014,0-.02-.005-.015-.01-.02-.01-.01-.01-.015-.01,0-.015-.01-.01-.005-.015,0-.015v-.075l0-.02.005-.029.01-.04.015-.054.015-.06.015-.039.01-.04.015-.035.015-.034.014-.015.01-.02.01-.015.015-.014.01-.01.014-.01.015-.005.01,0h.069l.025,0,.02.005.025.01.02.01.02.014.02.015.02.015.015.02.015.02.015.02.01.02.005.024.01.025,0,.025.005.024v.074l0,.025v.108l0,.025v.049l-.005.024Z" transform="translate(-4077.995 -7553.668)" fill-rule="evenodd"/>
      <path id="Path_4" data-name="Path 4" d="M3742.3,4242h3.645l.029.009.025.006.03.009.025.015.02.015.025.015.02.015.015.02.015.02.015.02.01.025.01.02v.024l0,.024,0,.025v.025l-.01.024-.01.02-.015.02-.015.02-.015.02-.02.02-.025.015-.02.015-.025.01-.03.01-.025.01-.029,0-.03.005h-3.645l-.03-.005-.03,0-.024-.01-.03-.01-.025-.01-.02-.015-.024-.015-.02-.02-.015-.02-.015-.02-.015-.02-.01-.02,0-.024,0-.025-.005-.025.005-.024,0-.024,0-.02.01-.025.015-.02.015-.02.015-.02.02-.015.024-.015.02-.015.025-.015.03-.009.024-.006.03-.009h.059Z" transform="translate(-3730.716 -4235.116)" fill-rule="evenodd"/>
      <path id="Path_5" data-name="Path 5" d="M3647.36,4081h4.35l.034,0,.034,0,.035.01.03.01.029.01.03.015.025.015.025.015.02.02.02.02.015.02.01.02.01.024,0,.01v.01l.005.015v.02l-.005.015v.01l0,.01-.01.025-.01.02-.015.02-.02.02-.02.02-.025.015-.025.014-.03.015-.029.01-.03.01-.035.01-.034,0-.034,0h-4.39l-.034,0-.035,0-.029-.01-.035-.01-.029-.01-.025-.015-.03-.014-.02-.015-.024-.02-.02-.02-.015-.02-.01-.02-.01-.025v-.01l0-.01v-.049l0-.01v-.01l.01-.024.01-.02.015-.02.02-.02.024-.02.02-.015.03-.015.025-.015.029-.01.035-.01.029-.01.035,0,.034,0Z" transform="translate(-3636.185 -4074.91)" fill-rule="evenodd"/>
      <path id="Path_6" data-name="Path 6" d="M3562.424,3923h5.065l.044,0h.045l.04.01.039.009.034.01.035.01.034.015.03.015.03.02.025.02.02.02.02.02.005.015.01.01,0,.01.005.015,0,.01v.079l0,.01-.005.015,0,.01-.01.01-.005.01-.02.025-.02.02-.025.02-.03.015-.03.02-.034.015-.035.01-.034.01-.039.01-.04,0-.045,0h-5.154l-.039,0-.045,0-.034-.01-.039-.01-.035-.01-.03-.015-.034-.02-.025-.015-.025-.02-.02-.02-.02-.025-.01-.01-.005-.01,0-.01-.005-.015,0-.01,0-.015v-.049l0-.015,0-.01.005-.015,0-.01.005-.01.01-.015.02-.02.02-.02.025-.02.025-.02.034-.015.03-.015.035-.01.039-.01.034-.009.045-.01h.039Z" transform="translate(-3551.604 -3917.688)" fill-rule="evenodd"/>
      <path id="Path_7" data-name="Path 7" d="M3590.34,2851.09h4.966c-.552-1.351,2.146-2.722.833-3.59.084.7-.345,1.055-.823,1.425l-.064.044c.631-1.08.656-2.308-.548-2.969a1.337,1.337,0,0,1,.2,1.376c-.439.77-1.46,1.233-2.146,1.726a2.2,2.2,0,0,0-1.568-2.229,1.124,1.124,0,0,1,.123,1.5c-.493.784-1.455,1.44-1.179,2.58A.2.2,0,0,0,3590.34,2851.09Z" transform="translate(-3579.549 -2846)" fill-rule="evenodd"/>
      <path id="Path_8" data-name="Path 8" d="M2278.458,3928.286a4.009,4.009,0,0,0-.922,1.741c-.3,1.4.281,1.973,1.47,1.07a4.692,4.692,0,0,0,1.238-1.849,2.892,2.892,0,0,0,1.277.266,7.3,7.3,0,0,0,.015,1.637c.429,1.909,1.568,2.077,2.042.109a5.623,5.623,0,0,0,.069-1.736,2.786,2.786,0,0,0,1.129-.227,3.6,3.6,0,0,0,1.134,1.691c1.307,1.016,1.844.257,1.6-1.065a3.523,3.523,0,0,0-1.046-1.706,6.553,6.553,0,0,0,1.08-1.006,4.552,4.552,0,0,0,1.756.843c1.287.281,1.928-.345,1.08-1.366a4.61,4.61,0,0,0-1.849-1.282,4.685,4.685,0,0,0,.118-1.3,7.529,7.529,0,0,0,2.239-.123c1.011-.321,1.553-1.312-.005-1.766a7.558,7.558,0,0,0-2.2-.064,8.028,8.028,0,0,0-.281-1.316,5.3,5.3,0,0,0,1.7-1.159c.863-.883.38-2-1.1-1.509a7.8,7.8,0,0,0-1.751.932,3.4,3.4,0,0,0-.75-.6,19.049,19.049,0,0,0,.888-2.16c.232-.981-.325-1.958-1.534-.818a6.734,6.734,0,0,0-1.721,3.309,4.827,4.827,0,0,1,3.043,4.759,4.791,4.791,0,0,1-9.568-.192,5.007,5.007,0,0,1,2.979-4.542,7.144,7.144,0,0,0-1.6-3.112c-1.465-1.341-1.928-.059-1.692.971a4.19,4.19,0,0,0,.907,1.761,4.538,4.538,0,0,0-.823.883,6.909,6.909,0,0,0-1.741-.942c-.878-.2-2.027.064-1.322,1.248a4.478,4.478,0,0,0,2.012,1.494,5.961,5.961,0,0,0-.094,1.2c-.769.015-.977-.02-1.869.044-1.006.049-2.071,1.06-.715,1.8a5.49,5.49,0,0,0,2.589.316,3.43,3.43,0,0,0,.242,1.169,4.019,4.019,0,0,0-1.6.981c-1.125,1.346-.37,2.18,1.243,1.617a5.822,5.822,0,0,0,1.42-.877A4.572,4.572,0,0,0,2278.458,3928.286Z" transform="translate(-2268.969 -3909.732)" fill-rule="evenodd"/>
      <path id="Path_9" data-name="Path 9" d="M6624.938,7718.6h0v.05l0,.049,0,.045,0,.049-.01.044-.011.045-.015.044-.014.044-.035.089-.039.088-.04.094-.055.093-.019.035-.021.034-.029.035-.029.029-.025.02-.029.025-.029.019-.04.025-.049.024-.06.024-.078.03-.09.039-.152.054h-.045l0-.005v0l-.006-.01v-.02l.006-.01.015-.015.024-.029.034-.035.049-.044.184-.158.049-.04.044-.039.05-.044.045-.05.024-.03.024-.024.02-.025.015-.024.015-.02.011-.015,0-.014v-.05l0-.02,0-.02-.016-.039-.02-.04-.01-.015-.015-.025-.02-.029-.03-.035-.029-.039-.034-.04-.035-.029-.034-.03-.029-.025-.024-.019,0-.01,0-.005-.006-.005v0l.1-.232.128-.291.01-.015.015-.015.01-.015.015-.014V7718l0,0,.035.035.034.029.024.02.025.025.059.054.05.054.02.02.015.025.015.02.01.02.021.035.014.03.016.039.01.035.01.039,0,.039v.04Z" transform="translate(-6598.502 -7693.972)" fill-rule="evenodd"/>
      <path id="Path_10" data-name="Path 10" d="M6461.321,7747.094h0l-.138.336-.05.143v.168l0,.034v.163l-.005.04,0,.044-.005.049,0,.049,0,.049-.01.049,0,.035,0,.04-.015.049-.009.054-.015.06-.015.059-.015.059-.015.059.02.03h.01l.01-.005,0,0h.01l.014-.015.015-.02.02-.025.025-.034.029-.044.035-.055.1-.221.02-.05.014-.049.02-.045.01-.044.01-.05,0-.049,0-.059,0-.064.015-.395v-.251l.01-.148v-.015l-.01-.01-.009-.01-.02.015-.005.01-.015.024-.01.015-.01.02Z" transform="translate(-6436.307 -7722.829)" fill-rule="evenodd"/>
      <path id="Path_11" data-name="Path 11" d="M6339.577,7298.335h0l0,.03v.029l0,.029-.01.035-.009.035-.015.04-.015.039-.024.04-.02.044-.03.04-.034.034-.035.04-.024.02-.02.015-.02.01h-.025l-.015-.01-.025-.02-.029-.02-.03-.029-.029-.02-.025-.025-.024-.02-.025-.014-.025-.02-.015-.02-.019-.02-.015-.015-.015-.015,0-.015v-.014l.015-.035.015-.029.01-.03.01-.025.025-.054.025-.055.024-.044.015-.034.025-.045.029-.039.025-.049.03-.045.014-.024.02-.03.015.015.015.015.025.015.025.015.059.049.044.04.034.034.03.03.015.024.015.029.009.035Z" transform="translate(-6314.908 -7276.043)" fill-rule="evenodd"/>
      <path id="Path_12" data-name="Path 12" d="M5908.578,7293.336h0l0-.034-.01-.035-.02-.029-.015-.03-.029-.028-.035-.03-.044-.044-.054-.044-.03-.021-.02-.01-.02-.015-.015-.015-.02.029-.015.02-.03.05-.025.044-.024.045-.03.044-.015.034-.02.045-.025.049-.029.06-.01.024-.01.024-.015.035-.014.034v.015l0,.016.015.015.015.015.02.02.02.02.02.015.025.02.024.025.03.02.029.024.03.025.024.02.024.02.015,0,.015,0h.015l.02-.01.02-.015.02-.021.04-.039.029-.039.03-.04.02-.039.024-.039.015-.04.015-.039.015-.035,0-.034,0-.03v-.029Z" transform="translate(-5886.035 -7271.069)" fill-rule="evenodd"/>
      <path id="Path_13" data-name="Path 13" d="M5970.577,7440.336h0l0-.035-.01-.029-.02-.035-.015-.024-.029-.029-.035-.035-.044-.039-.059-.049-.025-.016-.02-.014-.02-.015-.015-.015-.025.03-.015.025-.025.044-.024.048-.03.045-.025.044-.015.035-.02.039-.025.054-.029.06-.01.02-.01.03-.015.029-.015.04v.01l0,.015.015.015.015.02.02.014.02.02.02.02.025.015.024.02.025.025.029.024.03.025.029.025.025.015.015.009.015.006.015-.006.02-.009.02-.015.02-.02.034-.035.035-.039.024-.039.024-.04.025-.044.015-.04.015-.035.015-.039,0-.03.005-.029v-.035Z" transform="translate(-5947.729 -7417.344)" fill-rule="evenodd"/>
      <path id="Path_14" data-name="Path 14" d="M5847.582,7447.336h0l-.01-.035-.01-.029-.015-.03-.02-.03-.024-.029-.035-.035-.049-.04-.055-.049-.029-.015-.02-.015-.015-.01-.02-.019-.02.034-.015.02-.025.049-.029.044-.024.045-.025.044-.02.035-.02.039-.025.054-.025.059-.01.02-.014.029-.01.03-.02.04,0,.01.005.015.01.015.015.02.019.015.02.02.024.015.02.02.03.02.024.024.03.024.029.025.03.024.02.015.02.01.009,0h.01l0,0,.01,0,.01,0,.019-.015.025-.02.035-.035.034-.039.024-.04.024-.039.02-.044.02-.04.015-.034.01-.035.01-.035v-.034l0-.03Z" transform="translate(-5825.334 -7424.31)" fill-rule="evenodd"/>
      <path id="Path_15" data-name="Path 15" d="M5434.7,7441h0l-.044.06-.05.063-.054.074-.069.079-.064.068-.069.084-.089.094-.1.108-.029.039-.025.035-.024.034-.015.029-.015.03-.015.034-.015.035-.014.039.059-.06.064-.064.064-.059.064-.064.069-.073.064-.074.054-.069.054-.06.044-.054.04-.054.035-.05.025-.039.015-.03.009-.02.01-.024,0-.021.015-.039.009-.029V7441Z" transform="translate(-5414.373 -7418.339)" fill-rule="evenodd"/>
      <path id="Path_16" data-name="Path 16" d="M5235.223,7376.564h0l0-.01,0,0,.029-.034.055-.06.079-.084.1-.113.049-.054.054-.06.049-.064.059-.064.054-.068.06-.068.059-.069.064-.074.1-.128.1-.118.1-.119.088-.113.084-.108.083-.1.075-.1.068-.094.069-.089.064-.089.06-.084.054-.079.05-.079.049-.073.05-.069.039-.068.015-.035.015-.02,0-.01,0,0,0-.01h.005l0,.01.005.01,0,.01v.01l0,.035-.005.039-.01.029,0,.035-.01.063-.02.059-.025.06-.024.064-.03.06-.025.063-.035.064-.04.064-.039.073-.054.084-.069.1-.079.109-.049.063-.049.063-.055.069-.054.069-.055.074-.059.068-.059.074-.064.074-.661.794h.241l.05,0h.049l.044,0,.05,0,.054,0,.06.01.064.006.064.01.069.01.073.009.08.011.118.015.109.015.1.01.1.01.089.011.083,0,.069,0,.069,0,.059.006.06,0h.266l.049,0h0l.311-.006.152-.01.148-.015.148-.015.143-.02.138-.02.138-.024.133-.03.128-.029.074-.02.079-.021.074-.024.079-.024.074-.024.079-.029.079-.03.079-.029.08-.035.079-.029.083-.034.079-.04.163-.079.167-.084.074-.039.074-.039.074-.044.074-.045.074-.044.069-.044.074-.051.069-.049.069-.049.074-.055.069-.055.074-.054.074-.064.075-.063.079-.06.074-.069.059-.054.054-.055.044-.049.045-.045.034-.039.03-.039.024-.03.02-.029,0-.015,0-.011.005-.019,0-.021,0-.04,0-.048v-.045l0-.044,0-.016,0-.015.005-.015,0-.01.039-.084.044-.079.04-.084.04-.083.025-.04.029-.055.035-.054.04-.069.01,0,.01,0v.02l0,.045,0,.063-.01.09,0,.044-.005.049-.01.05,0,.044-.01.05-.01.044-.01.05-.009.044-.015.06-.015.059-.015.055-.015.05-.02.044-.015.044-.02.04-.015.039-.035.05-.029.054-.035.055-.035.05-.04.054-.039.055-.044.049-.04.054-.049.055-.044.055-.055.054-.05.055-.054.049-.054.055-.059.054-.059.055-.124.108-.123.1-.128.094-.128.094-.133.094-.139.084-.133.084-.139.073-.152.079-.148.079-.153.068-.153.06-.153.064-.157.054-.153.055-.158.044-.158.045-.163.034-.163.034-.158.03-.167.024-.163.02-.167.016-.168.009v.006h0l-.133,0-.118,0h-.217l-.094,0-.089-.011-.079,0-.074-.016-.04-.01-.044-.01-.039-.01-.044-.015-.04-.015-.04-.021-.04-.015-.044-.02-.04-.02-.039-.02-.04-.024-.04-.025-.039-.024-.039-.029-.04-.024-.034-.035-.01,0-.005.011-.009.02-.01.024-.02.069-.03.093-.015.064-.02.064-.02.068-.024.069-.02.06-.029.054-.024.055-.03.055-.029.049-.035.044-.034.045-.035.039-.044.05-.044.039-.025.02-.02.015-.024.016-.025.015-.02.01-.024.015-.025.01-.024,0-.02,0-.025,0-.024.006-.025,0-.024,0h-.044l-.025-.006-.02,0-.02,0-.024,0-.015-.015-.02-.01-.02-.01-.019-.015-.015-.016-.02-.015-.02-.015-.014-.02-.015-.024-.015-.02-.015-.021-.015-.024-.01-.024-.025-.055-.02-.055-.015-.059-.015-.068,0-.064-.01-.074v-.089l-.005-.02.005-.02-.005-.074V7377l.005-.05v-.049l0-.055v-.059l0-.064v-.064l0-.068,0-.074.02-.449.049-.571.207-.612.01-.01.01,0,.005,0v.217l-.005.064,0,.079-.005.084-.01.094,0,.054v.06l0,.063,0,.069,0,.079,0,.079-.01.088,0,.095-.01.089,0,.078,0,.069,0,.055,0,.044,0,.034v.074l0,.039v.084Zm.759.469v-.015l0-.01v-.015l0-.011-.005-.009-.009-.015-.011-.011-.009,0-.025-.02-.03-.02-.034-.015-.04-.01-.04-.011-.044-.01-.035,0-.04,0-.035-.01h-.1l-.03,0-.024,0h-.024l-.02.01-.02.01-.02.011-.019.01-.01.015-.015.015-.014.02-.005.015-.01.021v.02l0,.024v.089l0,.034,0,.029.01.03,0,.024.01.024.01.021.015.02.019.02.025.02.029.02.03.015.03,0,.04.011h.084l.049-.006.049-.01.044-.009.035-.016.039-.015.03-.024.015-.01.015-.015.01-.016.015-.015.02-.02.014-.029.011-.025.015-.024,0-.024,0-.029,0-.03Z" transform="translate(-5216.353 -7351.669)" fill-rule="evenodd"/>
      <path id="Path_17" data-name="Path 17" d="M4916.819,7877.513h0l0,.064-.01.064-.01.074-.02.073-.02.074-.024.069-.029.068-.03.064-.024.05-.03.044-.024.044-.03.04-.024.034-.029.035-.025.024-.029.029-.025.024-.029.021-.03.02-.029.015-.03.01-.034.01-.03,0h-.06l-.024,0-.02,0-.025,0-.014-.01-.02-.01-.015-.015-.015-.016-.015-.02-.009-.02-.01-.02,0-.021,0-.024,0-.029-.005-.029v-.03l.005-.044,0-.049.01-.045.01-.049.093-.2.089-.152-.025-.01-.02,0h-.014v-.02l.01-.024.01-.035.02-.044.025-.069.03-.064.024-.049.02-.04.1-.241.01-.016,0-.014.009-.015.005-.011.01,0,.01-.01h.03l.02,0,.024.015.029.015.03.016.025.02.024.015.02.016.044.039.035.044.015.02.014.02.015.025.01.02.01.02,0,.024.01.03,0,.024v.034l.005.035v.039Zm-.276.454h0l0-.02v-.02l0-.02-.005-.021-.01-.014-.01-.016-.015-.015-.01-.01-.02-.015-.02-.02-.02-.016-.024-.015-.025-.015-.025-.01-.02,0-.02,0,0,0-.01,0,0,0-.014.011-.025.034-.029.04-.016.024-.009.02-.01.024-.01.02-.01.02,0,.021v.069l0,.015.005.015,0,.01,0,.01.01.01.005,0,.009.01.01.006.014,0,.016,0,.03,0,.034,0h.02l.02,0,.015,0,.02,0,.02,0,.02-.011.02-.01.015-.01.02-.01.019-.015.01-.015.015-.015,0-.016.01-.014v-.016Z" transform="translate(-4898.926 -7852.188)" fill-rule="evenodd"/>
      <path id="Path_18" data-name="Path 18" d="M4396.046,7435.5h0l.3-.519h0l.182-.329.01-.03.015-.034.01-.04.01-.034,0-.039,0-.04,0-.049.005-.045v-.049h0l.01-.217v-.03l0-.054,0-.079.015-.095.01-.1.01-.079.01-.068.01-.051.01-.044.015-.049.015-.05.02-.059.02-.064.029-.069.035-.073.034-.089.01-.01,0-.006.005,0h.01l0,0v.069l0,.064-.01.084-.015.1-.015.1-.015.084,0,.059,0,.045-.01.241v.064l.005.044v.045l0,.034.009.039.005.035.009.029.01.03,0,.015.015.02.01.015.01.015.015.01.015.015.015,0,.02.01.02.011.02,0,.015,0,.024,0h.074l.02-.049.015-.05.015-.05.015-.049.01-.015.015-.045.025-.063.035-.094.014-.035.02-.029.015-.034.015-.03.02-.029.015-.029.02-.024.019-.025.025-.034.03-.025.034-.024.03-.02.034-.015.029-.01.035-.011h.064l.03.006.024.01.025.01.01.01.01,0,.01.011.01.009,0,.01,0,.016,0,.01.005.015v.039l-.005.016,0,.01,0,.01,0,.009-.01.011-.015.015-.01.015-.015,0h-.029l-.04-.015-.024-.01-.029,0h-.025l-.02,0-.029,0-.02,0-.024,0-.025.015-.024.015-.02.015-.02.025-.021.024-.019.024-.02.025-.01.019-.015.025-.005.02-.009.024v.021l-.005.02v.014l.005.016,0,.015,0,.015.01.02,0,.016.015.015.01.015.015.015.014.015.015.01.02.011.014,0,.02,0,.02,0h.05l.015,0,.015,0,.015-.011.015,0,.015-.01.01-.01.03-.029.029-.03.03-.039.03-.044.015-.025.015-.034.02-.034.024-.039.01-.025.01-.02.01-.011.01-.014.01-.01.01-.006h.015l0,.006.005,0,0,.011v.015l0,.01v.015l-.005.02,0,.02-.02.05-.02.055-.024.059-.03.074-.024.049-.02.045-.024.049-.025.05-.024.044-.025.045-.03.039-.025.045-.034.049-.035.045-.029.039-.035.04-.035.034-.039.029-.035.035-.034.024-.035.024-.04.015-.04.02-.04.016-.039.009-.035.006-.04,0-.044,0-.025,0h-.029l-.024,0h-.025l-.019-.011-.025-.009-.02-.011-.024-.01-.015-.015-.02-.01-.02-.015-.015-.02-.02-.015-.015-.025-.014-.02-.015-.02-.005-.021-.01-.014-.2.359.035.015.024.01.02.01.015.011.02.01.024.02.039.02.044.03.025.014.025.02.015.021.015.015.015.024,0,.021.005.023,0,.025,0,.015v.016l-.005.014,0,.02-.034.069-.029.069-.02.029-.015.035-.02.024-.015.029-.015.025-.02.024-.02.02-.02.02-.02.02-.02.02-.02.016-.02.015-.02.01-.024.015-.035.01-.04.015-.044.016-.054.014-.059.021-.064.015-.074.021-.064.023-.064.03-.059.024-.054.035-.054.034-.059.033-.054.046-.049.044-.044.039-.039.04-.035.039-.03.045-.029.039-.02.034-.014.04-.02.05-.015.048-.014.05-.015.055-.015.06-.015.054-.015.06-.01.063,0,.03-.01.054-.015.074-.01.1,0,.03-.005.038,0,.06,0,.074-.01.088-.009.1-.01.118-.01.134-.015.133-.01.123-.01.1,0,.094-.005.079,0,.06v.049l0,.035-.03.783v.045l0,.049v.05l0,.054v.06l0,.06-.005.059,0,.064-.01.118-.015.079,0,.029-.005.02,0,.01v.006l0,0h0v-.055l0-.054-.005-.04,0-.044v-.06l0-.06-.005-.049,0-.055v-.113l0-.03v-.625l0-.06v-.469l0-.118.005-.118,0-.119.01-.118.01-.118.01-.118.015-.118.015-.119.02-.113.02-.108.02-.1.02-.1.02-.094.024-.088.025-.085.014-.06.02-.059.02-.06.024-.059.02-.055.029-.054.025-.05.03-.054.024-.05.03-.049.035-.044.029-.051.035-.044.029-.039.044-.045.04-.049.044-.044.04-.04.04-.034.035-.029Z" transform="translate(-4380.496 -7410.377)" fill-rule="evenodd"/>
      <path id="Path_19" data-name="Path 19" d="M2075.311,7505.113h0l-.133.38-.044.163v.035l-.005.035v.163l0,.045v.133l0,.049,0,.054,0,.054,0,.054-.005.054-.01.059-.005.04,0,.044-.01.054-.01.064-.015.064-.014.069-.015.064-.015.069.02.035h.015l.005-.005.01,0,.015-.014.015-.02.02-.03.025-.04.025-.054.029-.059.1-.256.02-.054.015-.054.015-.054.01-.05.01-.054,0-.059.01-.064v-.074l.015-.454,0-.281.01-.173v0l0-.01-.005-.015-.01-.01-.015.02-.01.015-.015.024-.01.02-.01.02Z" transform="translate(-2071.938 -7482.022)" fill-rule="evenodd"/>
      <path id="Path_20" data-name="Path 20" d="M1982.761,7850.1h0l0-.025,0-.02v-.039l0-.01,0,0-.005-.005h-.01l-.005.005-.01.01-.01.01-.02.034-.03.05-.035.049-.025.04-.025.035-.02.02-.025.02-.034.02-.039.02-.044.025-.064.035-.049.024-.035.02-.02.01-.03.02-.025.02-.03.02-.02.02-.025.02-.02.02-.02.02-.015.019-.015.025-.02.025-.02.034-.02.04-.044.094-.054.113-.049.109-.04.083-.025.054-.02.03-.035.04-.049.049-.064.054-.074.06-.015.01-.025.015-.04.03-.054.034-.084.054-.059.04-.039.025-.02.01-.044.034-.04.03-.035.025-.034.024-.025.024-.02.02,0,.005,0,.01,0,0v.01l.01,0,.01.01.005.01h.015l.01,0h.015l.015.005.015-.005h.044l.049,0,.064-.01.079-.015.069-.015.064-.015.054-.014.039-.015.02-.01.02-.009.025-.015.02-.015.02-.01.02-.015.015-.015.02-.02.015-.02.015-.015.015-.02.02-.02.025-.044.025-.044.015-.029.015-.035.015-.04.02-.04.015-.049.025-.05.02-.059.025-.059.03-.064.025-.049.03-.044.025-.04.01-.015.015-.02.025-.015.02-.02.025-.014.02-.015.02-.01.015,0,.212-.108.025-.015.02-.015.02-.02.025-.021.02-.024.02-.029.02-.03.02-.034.02-.04.02-.039.02-.045.02-.049.015-.049.02-.054.02-.059Z" transform="translate(-1978.401 -7825.321)" fill-rule="evenodd"/>
      <path id="Path_21" data-name="Path 21" d="M2875.548,7656.316h0l0,.03,0,.029v.03l-.01.029-.01.035-.015.035-.015.034-.02.039-.02.04-.03.039-.03.035-.034.034-.02.02-.02.015-.01,0h-.005l-.01.005h0l-.015-.005-.015-.01-.02-.014-.03-.02-.024-.024-.03-.02-.025-.025-.024-.015-.025-.02-.02-.015-.02-.02-.015-.016-.015-.014-.01-.02,0-.01,0-.015.015-.029.015-.035.01-.024.01-.02.03-.059.02-.045.02-.04.015-.034.025-.04.025-.044.024-.044.025-.039.015-.02.02-.035.015.016.02.014.015.015.03.015.049.044.044.04.035.03.025.029.015.025.02.029.01.03Z" transform="translate(-2867.992 -7632.278)" fill-rule="evenodd"/>
      <path id="Path_22" data-name="Path 22" d="M2760.548,7663.316h0v.089l-.01.029-.01.035-.015.034-.015.035-.02.039-.025.039-.025.04-.03.034-.035.034-.02.02-.02.011-.01.01h-.035l-.015-.01-.025-.015-.025-.02-.03-.025-.024-.024-.025-.021-.025-.02-.025-.015-.02-.02-.02-.015-.015-.02-.015-.016-.01-.015-.01-.015v-.01l.015-.034.015-.03.01-.024.01-.02.025-.059.024-.05.02-.04.015-.029.024-.044.025-.039.025-.045.025-.045.015-.02.02-.029.015.015.015.015.02.01.025.015.054.045.044.04.035.033.024.025.015.029.015.024.01.034Z" transform="translate(-2753.559 -7639.245)" fill-rule="evenodd"/>
      <path id="Path_23" data-name="Path 23" d="M1658.592,7815.316h0l0-.014,0-.015v-.015l-.005-.015-.01-.015-.005-.015-.01-.01-.01-.015-.03-.03-.035-.029-.044-.04-.054-.044-.025-.015-.025-.015-.034-.015-.035-.015-.015.03-.015.02-.025.034-.025.044-.025.044-.03.05-.128.286v.01l0,.01.005.01,0,0,.015.02.02.015.025.015.03.015.025.02.025.014.01.005.03.02.04.029.054.044.02.01.01.01.015.005,0,0,.015,0,.02-.015.02-.015.025-.02.025-.029.03-.035.03-.04.03-.045.02-.02.01-.025.01-.024.015-.025,0-.025,0-.025.005-.024v-.059Z" transform="translate(-1656.994 -7790.494)" fill-rule="evenodd"/>
      <path id="Path_24" data-name="Path 24" d="M1456.358,7688.169h0l-.015.054-.01.049-.01.04-.01.04-.01.034,0,.03-.015.04-.01.035-.02.054-.02.05-.02.049-.02.049-.025.05-.025.049-.025.049-.03.049-.03.054-.03.05-.035.049-.03.049-.034.044-.035.044-.035.049-.04.044-.059.064-.059.064-.059.054-.064.054-.059.05-.064.044-.064.04-.064.04-.034.015-.03.015-.034.015-.035.015-.034.01-.035.015-.035.009-.039.01-.035,0-.035.01-.039,0-.039.005-.035,0h-.079l-.04,0-.049,0h-.039l-.044,0-.039-.005-.04-.01-.04-.01-.034-.01-.04-.009-.035-.02-.03-.015-.035-.015-.03-.019-.03-.025-.025-.02-.03-.029-.025-.024-.02-.025-.025-.03-.02-.03-.02-.034-.02-.03-.015-.035-.015-.034-.01-.035-.015-.034-.005-.04-.01-.034-.01-.04,0-.04-.005-.044v-.173l.005-.044,0-.049.01-.049,0-.045.01-.049.01-.049.015-.049.01-.05.015-.044.01-.044.015-.039.01-.04.015-.034.015-.035.03-.069.03-.069.035-.068.034-.069.025-.05.025-.049.03-.049.025-.049.03-.049.03-.045.025-.049.03-.049.02-.035.015-.029.015-.015,0-.01h.005l0-.005h.01l.015.005v0l0,.01,0,.02v.025l0,.025-.005.029-.005.02,0,.025-.192.4-.035.084-.025.069-.025.059-.015.04-.01.029-.005.035-.01.029,0,.029-.005.035v.029l0,.034v.074l0,.035v.04l.01.035.01.039.005.029.015.035.015.03.015.03.015.024.02.03.02.024.025.025.025.02.025.02.03.02.02.015.025.01.025.015.025.01.049.02.054.015.054.015.059,0,.064,0,.064,0,.094,0,.084,0,.044,0,.04-.005.039,0,.035,0,.039-.01.035-.009.039-.015.04-.015.039-.014.035-.015.039-.02.04-.02.044-.024.039-.025.035-.024.039-.03.035-.024.034-.03.035-.034.03-.03.044-.054.049-.059.054-.069.059-.079.03-.054.03-.055.025-.049.02-.049.005-.029.01-.024.005-.03,0-.03,0-.029v-.035l.005-.035v-.034l.01-.4v-.049l.005-.049.01-.044.01-.044.01-.044.02-.049.02-.054.025-.064.114-.222.02-.025.01-.025.01-.014.005-.011.015-.014.02-.025,0,0,.005.01,0,.01.005.005,0,.02,0,.02-.025.2-.03.281-.005.079v.074l-.01.069-.01.064v.035l-.01.035,0,.039-.01.04-.01.039-.01.049-.01.045Z" transform="translate(-1454 -7663.125)" fill-rule="evenodd"/>
      <path id="Path_25" data-name="Path 25" d="M2401.167,7680.825l-.187-.05-.034.04-.034.029-.025.029-.025.02-.035.04-.044.034-.049.04-.054.035-.054.035-.054.029-.054.035-.064.029-.059.025-.064.024-.069.024-.064.025-.054.015-.059.015-.059.02-.059.015-.069.014-.069.015-.069.015-.074.015-.079.015-.084.014-.089.015-.089.01-.089.015-.094.014-.1.011-.1.009-.1.01-.1.01-.1,0-.1.01h-.1l-.1,0-.1,0h-.331l-.059,0-.064,0h-.054l-.055,0-.059,0-.049,0-.074-.01-.069-.015-.064-.015-.059-.014-.054-.02-.049-.02-.04-.019-.044-.025-.015-.01-.015-.015-.02-.02-.015-.015-.01-.02-.015-.02-.01-.024-.005-.02-.01-.049-.01-.054-.005-.054,0-.059v-.069l0-.035v-.04l.005-.035,0-.039v-.04l0-.04.01-.039.005-.03,0-.029,0-.025.01-.014.01-.015h.005l.005-.005,0,0h.015l.01,0,.005.005.005.01.01.009.005.01,0,.015v.02l.01.035.01.035.015.034.014.035.015.024.02.025.024.019.025.02.029.02.03.014.034.015.04.01.039.01.04.01.044.01.044.009.049.01.049,0,.054,0,.054.01.059,0,.054,0,.049.005H2398l.049,0,.054,0h.385l.094,0h.089l.089,0h.094l.094-.005.088,0,.094,0,.1-.01.1-.01.1-.01.114-.014.118-.015.123-.015.128-.02.059-.009.059,0,.049-.01.054-.01.04,0,.04-.01.034-.005.034,0,.054-.01.054-.01.054-.015.044-.01.044-.015.044-.01.034-.009.04-.015.03-.015.03-.01.029-.01.02,0,.044-.02.04-.015.044-.025.044-.019.03-.02.034-.024.035-.03.03-.025h0l0,0,0,.005v0l0,.015,0,.02,0,.02,0,.03h.04l.02,0h.03l0,0v0l.044-.005.04,0,.024,0,.02,0,.034-.014.03-.011.03-.01.02,0,.054-.024.049-.02.049-.02.04-.024.029-.015.025-.015.02-.015.014-.015.015-.02,0-.009.01-.015v-.015l-.01-.059-.01-.02-.015-.01-.01-.015-.02-.01-.015-.01h-.02l-.02-.005-.025,0-.079.01-.009,0h-.01l-.015,0h0l0-.01,0-.01v-.02l.01-.015.01-.015.015-.015.01-.02.02-.02.024-.015.025-.02.024-.02.035-.025.04-.02.04-.02.04-.015.039-.015.04,0,.04-.005.044,0,.03,0H2402l.024.005.03,0,.03,0,.024,0,.025.01.024.01.015.01.02.01.015.015.01.015,0,.015.005.02,0,.02v.015l0,.02-.005.015,0,.015,0,.015,0,.015-.01.015-.01.019-.02.025-.01.02-.01.015v.01l0,0v0l0,0h0l0,.01h.04l.02-.005.02,0,.025-.01.025-.01.024-.01.03-.01h0v0l.024-.015.024-.015.025-.015.025-.02.02-.02.025-.015.015-.015.015-.009.025-.025v0l.029-.03.035-.029.03-.03.035-.025.024-.015.024-.02.025-.01.02-.01.02-.009.02,0,.015-.005h.04l.025.005.029.01.03.014.029.015.025.01.015,0,.015.005h.01l.01-.005.01-.01.02-.015.04-.04.049-.059.035-.044.029-.04.03-.034.024-.025.02-.015.02-.015.015-.015.02-.01.015-.01.02,0,.015,0h.035l.024,0,.035.01.044.01.044.01.044.009.03.005h.039l0-.005.01-.009.015-.015.029-.035.045-.055.029-.034.035-.039.029-.035.03-.039.035-.035.029-.039.03-.04.035-.035.049-.039.044-.04.049-.039.044-.039.045-.025.034-.025.044-.02.034-.02.04-.01.035-.01.04-.005h.1l.025.005.024.01.02,0,.02.01.015.01.015.015.015.015.01.015.01.015.005.02,0,.019.005.02,0,.025v.02l0,.044-.005.034-.01.04-.01.04-.015.04-.02.044-.024.05-.03.049-.035.055-.029.054-.035.044-.029.044-.025.035-.03.03-.024.025-.025.029-.029.025-.02.02-.03.02-.025.019-.044.025-.04.03-.044.025-.035.02-.044.02-.035.02-.034.01-.035.015-.04.01-.034.009-.035.011-.035,0-.034,0-.04.005-.035,0h-.094l-.054,0-.044-.005-.04-.009-.035-.011-.035-.015-.034-.015-.034-.02-.035-.02-.025-.015-.015-.015-.015-.01-.02-.014-.015-.025-.015.02-.01.01-.034.04-.03.029-.025.025-.015.015-.024.029-.025.025-.024.02-.02.02-.024.02-.02.015-.024.01-.02.009-.02.01-.024,0-.015,0h-.024l-.025,0-.044-.015-.029-.009-.025-.01-.024,0h-.04l-.015,0-.02,0-.02.01-.02.01-.02.009-.025.015-.024.015-.2.158h0v.005l-.035.024-.04.024-.02.01-.015.01-.02,0-.015,0-.035.01-.044.01h-.049l-.054,0-.015,0h-.024l-.025-.005-.025,0-.029-.01-.02,0h-.045l-.02,0-.024.01-.03.021-.064.044-.054.039-.05.03-.034.024-.03.025-.029.02-.025.02-.024.02-.025.01-.02.015-.02.01-.024.01-.02,0-.02,0h-.02l-.015,0-.113-.029v-.01Zm3.408-1.445h0v-.005l-.005,0,0,0-.01-.005-.02-.01-.035-.01-.035-.015-.035-.009-.029-.005h-.074l-.024.005-.025,0-.024.01-.02.01-.025,0-.025.015-.02.014-.02.015-.024.015-.025.015-.049.044-.044.044-.02.02-.02.02-.015.015-.02.02-.024.029-.025.024-.015.03-.015.025h.035l.034,0,.025-.005h.024l.069-.009.069-.015.064-.02.064-.019.059-.025.054-.025.054-.029.049-.03.029-.014.025-.02.024-.015.015-.02.015-.015.01-.015.005-.015Z" transform="translate(-2392.349 -7655.165)" fill-rule="evenodd"/>
      <path id="Path_26" data-name="Path 26" d="M3864.883,4420.16h1.445l.227-9.469.335-.474.153-.217H3864l.434.69Zm.261-9.469a.432.432,0,0,1,.69,0l0,6.367h-.449Z" transform="translate(-3852.114 -4402.287)" fill-rule="evenodd"/>
      <path id="Path_27" data-name="Path 27" d="M2427.311,7461.113h0l-.133.38-.044.158v.074l0,.039v.118l0,.045,0,.044,0,.049v.045l-.005.05,0,.054-.005.05,0,.054-.005.06-.01.054,0,.045-.005.044-.01.055-.01.063-.015.064-.015.069-.015.063-.015.069.02.035h.01l0,0,.01,0,0-.006.015-.015.02-.02.014-.024.025-.045.024-.049.03-.064.1-.251.02-.055.015-.054.015-.055.01-.05.01-.054.005-.06.01-.069v-.068l.015-.454,0-.281.01-.172v-.011l-.005-.01,0-.01-.01-.01-.015.02-.01.016-.015.019-.01.025-.01.015Z" transform="translate(-2422.202 -7438.239)" fill-rule="evenodd"/>
      <path id="Path_28" data-name="Path 28" d="M2259.548,8318.316h0l0,.025v.034l0,.03-.01.029-.01.029-.01.04-.02.034-.02.039-.02.039-.03.039-.03.035-.034.035-.02.02-.02.01-.01.006-.005,0-.01,0h0l-.01,0-.02-.01-.02-.015-.03-.024-.025-.021-.03-.024-.025-.02-.024-.02-.025-.016-.02-.02-.015-.015-.02-.021-.015-.014-.01-.016,0-.014,0-.011.02-.034.01-.029.01-.025.015-.02.025-.059.02-.049.02-.041.015-.029.024-.039.025-.045.024-.043.025-.045.015-.021.02-.029.02.015.015.015.02.01.025.015.049.045.044.039.034.035.025.024.02.03.015.023.01.035Z" transform="translate(-2255.03 -8291.015)" fill-rule="evenodd"/>
      <path id="Path_29" data-name="Path 29" d="M2144.548,8325.316h0v.083l-.01.03-.01.039-.015.034-.015.035-.02.039-.025.04-.025.034-.03.034-.034.034-.02.02-.02.016-.01,0-.01.006h-.025l-.015-.01-.02-.016-.03-.024-.025-.02-.029-.024-.025-.02-.024-.02-.025-.02-.02-.016-.02-.02-.015-.015-.015-.015-.01-.015-.01-.016v-.01l.015-.034.015-.03.01-.023.01-.025.025-.054.025-.051.02-.039.015-.034.025-.04.025-.044.024-.039.025-.044.015-.02.02-.03.015.015.02.01.015.016.025.015.054.044.044.039.034.029.025.03.015.024.015.029.01.03Z" transform="translate(-2140.597 -8297.979)" fill-rule="evenodd"/>
      <path id="Path_30" data-name="Path 30" d="M3488.547,7433.316h0l.005.024-.005.029v.034l-.01.03-.01.029-.015.034-.015.04-.02.039-.025.04-.029.039-.024.035-.035.034-.025.02-.02.01,0,.006-.01,0h-.024l-.015-.01-.025-.015-.024-.024-.03-.024-.025-.021-.024-.02-.025-.02-.024-.015-.02-.021-.02-.015-.015-.02-.02-.015-.005-.015-.01-.016v-.009l.015-.035.015-.029.01-.024.01-.021.025-.059.024-.049.02-.04.015-.029.024-.044.025-.04.025-.045.024-.044.015-.02.02-.03.015.015.015.016.02.01.024.015.054.045.044.039.035.034.024.025.015.029.015.024.01.029Z" transform="translate(-3477.969 -7410.377)" fill-rule="evenodd"/>
    </g>
  </g>
</svg>
