<svg xmlns="http://www.w3.org/2000/svg" width="15.497" height="17.496" viewBox="0 0 15.497 17.496">
  <path id="Union_55" data-name="Union 55" d="M4.569,17.5C1.669,17.5,0,15.791,0,12.818V5.9c0-2.76,1.442-4.43,3.972-4.652V.609a.6.6,0,1,1,1.192,0v.611h5.167V.609a.6.6,0,1,1,1.192,0v.637C14.055,1.469,15.5,3.139,15.5,5.9v6.92c0,2.973-1.669,4.678-4.569,4.678ZM1.192,12.818c0,2.328,1.1,3.457,3.376,3.457h6.36c2.273,0,3.376-1.129,3.376-3.457V6.992H1.192ZM14.3,5.77c-.036-2.031-.947-3.115-2.779-3.3v.582a.6.6,0,1,1-1.192,0V2.441H5.165v.609a.6.6,0,1,1-1.192,0V2.469c-1.832.186-2.743,1.27-2.779,3.3Zm-9.64,7.8a.891.891,0,0,1-.26-.172.819.819,0,0,1-.168-.268.806.806,0,0,1-.062-.309.857.857,0,0,1,.23-.576.9.9,0,0,1,.26-.174.78.78,0,0,1,.867.174.8.8,0,0,1,.095.119.613.613,0,0,1,.073.146.521.521,0,0,1,.046.154,1.013,1.013,0,0,1,.016.156.861.861,0,0,1-.23.576.776.776,0,0,1-.867.172Zm2.52-3.02c-.03-.039-.062-.082-.095-.123a.6.6,0,0,1-.07-.145.534.534,0,0,1-.049-.148,1.079,1.079,0,0,1-.016-.162.809.809,0,0,1,.065-.309.909.909,0,0,1,.165-.27.788.788,0,0,1,.867-.172.91.91,0,0,1,.263.172.861.861,0,0,1,.23.578,1.079,1.079,0,0,1-.016.162.534.534,0,0,1-.049.148.509.509,0,0,1-.07.145c-.032.041-.062.084-.095.123a.831.831,0,0,1-.263.17.729.729,0,0,1-.3.064A.826.826,0,0,1,7.184,10.547Zm-2.52.17a.884.884,0,0,1-.26-.17.936.936,0,0,1-.168-.268.823.823,0,0,1-.062-.311.869.869,0,0,1,.23-.578.977.977,0,0,1,.26-.172.765.765,0,0,1,.463-.047.5.5,0,0,1,.141.047.53.53,0,0,1,.144.076c.041.029.079.064.119.1a.822.822,0,0,1,.095.123A.579.579,0,0,1,5.7,9.66a.5.5,0,0,1,.046.145,1.17,1.17,0,0,1,.016.164.865.865,0,0,1-.23.578.825.825,0,0,1-.564.234A.752.752,0,0,1,4.663,10.717Z"/>
</svg>
