<svg xmlns="http://www.w3.org/2000/svg" width="13.5" height="13.5" viewBox="0 0 13.5 13.5">
  <path id="Union_52" data-name="Union 52" d="M-2427-12114.251a6.756,6.756,0,0,1,6.75-6.75,6.756,6.756,0,0,1,6.75,6.75,6.756,6.756,0,0,1-6.75,6.75A6.756,6.756,0,0,1-2427-12114.251Zm.94,0a5.818,5.818,0,0,0,5.81,5.811,5.815,5.815,0,0,0,5.807-5.811,5.815,5.815,0,0,0-5.807-5.808A5.817,5.817,0,0,0-2426.06-12114.251Zm7.252,2.111-1.443-1.443-1.444,1.443a.454.454,0,0,1-.332.137.466.466,0,0,1-.334-.137.473.473,0,0,1,0-.666l1.443-1.443-1.443-1.444a.473.473,0,0,1,0-.666.473.473,0,0,1,.666,0l1.444,1.443,1.443-1.443a.474.474,0,0,1,.666,0,.474.474,0,0,1,0,.666l-1.444,1.444,1.444,1.443a.474.474,0,0,1,0,.666.465.465,0,0,1-.332.137A.471.471,0,0,1-2418.807-12112.14Z" transform="translate(2427 12121.001)"/>
</svg>
