<svg xmlns="http://www.w3.org/2000/svg" width="13.5" height="13.5" viewBox="0 0 13.5 13.5">
  <path id="Union_53" data-name="Union 53" d="M-602.134-4580.5c-3.409,0-4.867-1.457-4.867-4.866v-3.768c0-3.411,1.457-4.867,4.867-4.867h3.139a.467.467,0,0,1,.276.091.517.517,0,0,1,.057.047l5.022,5.023a.462.462,0,0,1,.091.128.461.461,0,0,1,.047.2v3.141c0,3.409-1.456,4.866-4.867,4.866Zm-3.925-8.633v3.768c0,2.894,1.03,3.923,3.925,3.923h3.767c2.9,0,3.925-1.029,3.925-3.923v-2.669h-2.041c-2.147,0-2.983-.836-2.983-2.984v-2.04h-2.668C-605.029-4593.058-606.058-4592.029-606.058-4589.133Zm7.535-1.885c0,1.621.421,2.042,2.041,2.042h1.375l-3.416-3.417Zm-4.08,6.908v-2.633l-.453.453a.473.473,0,0,1-.665,0,.473.473,0,0,1,0-.665l1.245-1.245a.46.46,0,0,1,.073-.063.464.464,0,0,1,.271-.085.467.467,0,0,1,.333.139l1.256,1.255a.475.475,0,0,1,0,.667.473.473,0,0,1-.665,0l-.452-.452v2.631a.475.475,0,0,1-.471.471A.474.474,0,0,1-602.6-4584.11Z" transform="translate(607 4594)"/>
</svg>
