<svg xmlns="http://www.w3.org/2000/svg" width="14" height="14" viewBox="0 0 14 14">
  <g id="vuesax_outline_edit-2" data-name="vuesax/outline/edit-2" transform="translate(-684 -252)">
    <g id="edit-2" transform="translate(684 252)">
      <path id="Vector" d="M1.335,10.555a1.337,1.337,0,0,1-.927-.35,1.389,1.389,0,0,1-.4-1.184l.216-1.89A2.1,2.1,0,0,1,.734,6.046L5.523.976a2.326,2.326,0,0,1,3.71-.1,2.326,2.326,0,0,1,.105,3.71L4.549,9.651a2.1,2.1,0,0,1-1.056.566l-1.878.321C1.516,10.543,1.428,10.555,1.335,10.555ZM7.4.866a1.782,1.782,0,0,0-1.237.7L1.37,6.641a1.347,1.347,0,0,0-.274.583L.88,9.114a.513.513,0,0,0,.128.449.526.526,0,0,0,.455.105l1.878-.321a1.3,1.3,0,0,0,.566-.3L8.7,3.975A1.48,1.48,0,0,0,8.626,1.5,1.845,1.845,0,0,0,7.4.866Z" transform="translate(1.897 0.832)"/>
      <path id="Vector-2" data-name="Vector" d="M3.61,3.878H3.569A4,4,0,0,1,0,.506.444.444,0,0,1,.372,0a.444.444,0,0,1,.5.368A3.134,3.134,0,0,0,3.662,3.009a.438.438,0,0,1,.391.478A.452.452,0,0,1,3.61,3.878Z" transform="translate(6.505 2.509)"/>
      <path id="Vector-3" data-name="Vector" d="M10.938.875H.438A.441.441,0,0,1,0,.438.441.441,0,0,1,.438,0h10.5a.441.441,0,0,1,.438.438A.441.441,0,0,1,10.938.875Z" transform="translate(1.313 12.396)"/>
      <path id="Vector-4" data-name="Vector" d="M0,0H14V14H0Z" fill="none" opacity="0"/>
    </g>
  </g>
</svg>
