<svg id="vuesax_bold_setting-2" data-name="vuesax/bold/setting-2" xmlns="http://www.w3.org/2000/svg" width="17.066" height="17.066" viewBox="0 0 17.066 17.066">
  <g id="setting-2">
    <path id="Vector" d="M12.871,4.735c-1.287,0-1.813-.91-1.173-2.027A1.349,1.349,0,0,0,11.2.867L9.97.163A1.187,1.187,0,0,0,8.348.589L8.27.725a1.236,1.236,0,0,1-2.34,0L5.852.589A1.167,1.167,0,0,0,4.245.163l-1.23.7a1.357,1.357,0,0,0-.5,1.849c.647,1.109.121,2.02-1.166,2.02A1.355,1.355,0,0,0,0,6.086V7.338A1.355,1.355,0,0,0,1.351,8.689c1.287,0,1.813.91,1.166,2.027a1.349,1.349,0,0,0,.5,1.842l1.23.7a1.187,1.187,0,0,0,1.621-.427l.078-.135a1.236,1.236,0,0,1,2.34,0l.078.135a1.187,1.187,0,0,0,1.621.427l1.23-.7a1.35,1.35,0,0,0,.5-1.842c-.647-1.116-.121-2.027,1.166-2.027a1.355,1.355,0,0,0,1.351-1.351V6.086A1.366,1.366,0,0,0,12.871,4.735ZM7.111,9.023A2.311,2.311,0,1,1,9.422,6.712,2.316,2.316,0,0,1,7.111,9.023Z" transform="translate(1.422 1.821)"/>
    <path id="Vector-2" data-name="Vector" d="M0,0H17.066V17.066H0Z" transform="translate(17.066 17.066) rotate(180)" fill="none" opacity="0"/>
  </g>
</svg>
