<svg xmlns="http://www.w3.org/2000/svg" width="15" height="15" viewBox="0 0 15 15">
  <g id="vuesax_outline_global" data-name="vuesax/outline/global" transform="translate(-172 -252)">
    <g id="global" transform="translate(172 252)">
      <path id="Vector" d="M6.719,13.438a6.719,6.719,0,1,1,6.719-6.719A6.724,6.724,0,0,1,6.719,13.438Zm0-12.5A5.781,5.781,0,1,0,12.5,6.719,5.788,5.788,0,0,0,6.719.938Z" transform="translate(0.781 0.781)"/>
      <path id="Vector-2" data-name="Vector" d="M1.373,12.188H.748a.472.472,0,0,1-.469-.469.466.466,0,0,1,.456-.469A18.431,18.431,0,0,1,.736.938.466.466,0,0,1,.28.469.472.472,0,0,1,.748,0h.625a.479.479,0,0,1,.381.194.469.469,0,0,1,.063.425,17.467,17.467,0,0,0,0,10.956A.469.469,0,0,1,1.755,12,.492.492,0,0,1,1.373,12.188Z" transform="translate(4.252 1.406)"/>
      <path id="Vector-3" data-name="Vector" d="M.47,12.193a.42.42,0,0,1-.15-.025.466.466,0,0,1-.294-.594A17.467,17.467,0,0,0,.026.618a.468.468,0,0,1,.888-.3,18.323,18.323,0,0,1,0,11.544A.465.465,0,0,1,.47,12.193Z" transform="translate(8.905 1.401)"/>
      <path id="Vector-4" data-name="Vector" d="M6.094,1.844A18.235,18.235,0,0,1,.938,1.107.469.469,0,0,1,0,1.094V.469A.479.479,0,0,1,.194.088.469.469,0,0,1,.619.025a17.467,17.467,0,0,0,10.956,0A.469.469,0,0,1,12,.088a.462.462,0,0,1,.194.381v.625a.472.472,0,0,1-.469.469.466.466,0,0,1-.469-.456A18.31,18.31,0,0,1,6.094,1.844Z" transform="translate(1.406 8.906)"/>
      <path id="Vector-5" data-name="Vector" d="M11.721,1.845a.42.42,0,0,1-.15-.025,17.467,17.467,0,0,0-10.956,0,.468.468,0,0,1-.594-.294.477.477,0,0,1,.3-.594,18.323,18.323,0,0,1,11.544,0,.466.466,0,0,1,.294.594A.456.456,0,0,1,11.721,1.845Z" transform="translate(1.404 4.248)"/>
      <path id="Vector-6" data-name="Vector" d="M0,0H15V15H0Z" fill="none" opacity="0"/>
    </g>
  </g>
</svg>
