<svg xmlns="http://www.w3.org/2000/svg" width="15" height="15" viewBox="0 0 15 15">
  <g id="vuesax_outline_book" data-name="vuesax/outline/book" transform="translate(-556 -188)">
    <g id="book" transform="translate(556 188)">
      <path id="Vector" d="M6.719,12.6a1.1,1.1,0,0,1-.531-.131,15.676,15.676,0,0,0-4.512-1.481l-.181-.025A1.761,1.761,0,0,1,0,9.263V1.713A1.7,1.7,0,0,1,1.856.007,12.073,12.073,0,0,1,6.481,1.538l.15.087a.243.243,0,0,0,.175.006l.1-.063A12.322,12.322,0,0,1,11.537.013h.075a1.657,1.657,0,0,1,1.275.444,1.692,1.692,0,0,1,.55,1.269V9.27a1.756,1.756,0,0,1-1.5,1.7l-.206.025a15.5,15.5,0,0,0-4.494,1.481A1.028,1.028,0,0,1,6.719,12.6ZM1.706.938a.764.764,0,0,0-.525.2.773.773,0,0,0-.244.575v7.55a.826.826,0,0,0,.675.775l.188.025a16.6,16.6,0,0,1,4.813,1.575.281.281,0,0,0,.169.019,16.326,16.326,0,0,1,4.831-1.594l.212-.025a.821.821,0,0,0,.675-.775V1.72a.787.787,0,0,0-.244-.581.816.816,0,0,0-.6-.2h-.075A11.483,11.483,0,0,0,7.412,2.345l-.1.069A1.154,1.154,0,0,1,6.15,2.42L6,2.332A11.508,11.508,0,0,0,1.781.938Z" transform="translate(0.781 1.199)"/>
      <path id="Vector-2" data-name="Vector" d="M.469,10.313A.472.472,0,0,1,0,9.844V.469A.472.472,0,0,1,.469,0,.472.472,0,0,1,.938.469V9.844A.468.468,0,0,1,.469,10.313Z" transform="translate(7.031 2.963)"/>
      <path id="Vector-3" data-name="Vector" d="M1.875.938H.469A.472.472,0,0,1,0,.469.472.472,0,0,1,.469,0H1.875a.472.472,0,0,1,.469.469A.472.472,0,0,1,1.875.938Z" transform="translate(2.969 4.838)"/>
      <path id="Vector-4" data-name="Vector" d="M2.344.938H.469A.472.472,0,0,1,0,.469.472.472,0,0,1,.469,0H2.344a.472.472,0,0,1,.469.469A.472.472,0,0,1,2.344.938Z" transform="translate(2.969 6.713)"/>
      <path id="Vector-5" data-name="Vector" d="M0,0H15V15H0Z" fill="none" opacity="0"/>
    </g>
  </g>
</svg>
