<svg xmlns="http://www.w3.org/2000/svg" width="17.066" height="17.066" viewBox="0 0 17.066 17.066">
  <g id="vuesax_bold_lifebuoy" data-name="vuesax/bold/lifebuoy" transform="translate(-108 -252)">
    <g id="lifebuoy" transform="translate(108 252)">
      <path id="Vector" d="M3.932,4.636a3.192,3.192,0,0,1,.59-1.842L1.728,0a7.1,7.1,0,0,0-.007,9.273l2.8-2.795A3.192,3.192,0,0,1,3.932,4.636Z" transform="translate(1.401 3.897)"/>
      <path id="Vector-2" data-name="Vector" d="M4.651,3.911a3.192,3.192,0,0,1,1.842.59L9.266,1.728A7.085,7.085,0,0,0,0,1.721L2.788,4.515A3.186,3.186,0,0,1,4.651,3.911Z" transform="translate(3.883 1.422)"/>
      <path id="Vector-3" data-name="Vector" d="M2.773,0,0,2.766A3.186,3.186,0,0,1,.6,4.629,3.186,3.186,0,0,1,0,6.492L2.773,9.266A7.073,7.073,0,0,0,4.494,4.629,7.054,7.054,0,0,0,2.773,0Z" transform="translate(11.129 3.904)"/>
      <path id="Vector-4" data-name="Vector" d="M4.658.6A3.186,3.186,0,0,1,2.795,0L0,2.795A7.073,7.073,0,0,0,4.636,4.515,7.015,7.015,0,0,0,9.273,2.788L6.5.014A3.192,3.192,0,0,1,4.658.6Z" transform="translate(3.875 11.129)"/>
      <path id="Vector-5" data-name="Vector" d="M0,0H17.066V17.066H0Z" fill="none" opacity="0"/>
    </g>
  </g>
</svg>
