<svg xmlns="http://www.w3.org/2000/svg" width="14" height="14" viewBox="0 0 14 14">
  <g id="vuesax_outline_dollar-square" data-name="vuesax/outline/dollar-square" transform="translate(-172 -572)">
    <g id="dollar-square" transform="translate(172 572)">
      <path id="Vector" d="M3.2,6.323H1.738a1.766,1.766,0,0,1-1.733-1.8.441.441,0,0,1,.438-.437.441.441,0,0,1,.438.438.893.893,0,0,0,.858.922H3.2A.727.727,0,0,0,3.9,4.7c0-.508-.181-.607-.478-.712L1.067,3.162A1.46,1.46,0,0,1,0,1.622,1.6,1.6,0,0,1,1.569,0H3.033A1.766,1.766,0,0,1,4.766,1.8a.438.438,0,0,1-.875,0A.893.893,0,0,0,3.033.875H1.569a.727.727,0,0,0-.694.747c0,.507.181.607.478.712L3.7,3.162A1.46,1.46,0,0,1,4.772,4.7,1.6,1.6,0,0,1,3.2,6.323Z" transform="translate(4.614 3.838)"/>
      <path id="Vector-2" data-name="Vector" d="M.438,7.875A.441.441,0,0,1,0,7.438v-7A.441.441,0,0,1,.438,0,.441.441,0,0,1,.875.438v7A.441.441,0,0,1,.438,7.875Z" transform="translate(6.563 3.063)"/>
      <path id="Vector-3" data-name="Vector" d="M8.021,12.542h-3.5C1.353,12.542,0,11.188,0,8.021v-3.5C0,1.353,1.353,0,4.521,0h3.5c3.168,0,4.521,1.353,4.521,4.521v3.5C12.542,11.188,11.188,12.542,8.021,12.542ZM4.521.875C1.832.875.875,1.832.875,4.521v3.5c0,2.689.957,3.646,3.646,3.646h3.5c2.689,0,3.646-.957,3.646-3.646v-3.5c0-2.689-.957-3.646-3.646-3.646Z" transform="translate(0.729 0.729)"/>
      <path id="Vector-4" data-name="Vector" d="M0,0H14V14H0Z" fill="none" opacity="0"/>
    </g>
  </g>
</svg>
