<svg id="vuesax_bold_notification-status" data-name="vuesax/bold/notification-status" xmlns="http://www.w3.org/2000/svg" width="17.066" height="17.066" viewBox="0 0 17.066 17.066">
  <g id="notification-status">
    <path id="Vector" d="M4.267,2.133A2.133,2.133,0,1,1,2.133,0,2.133,2.133,0,0,1,4.267,2.133Z" transform="translate(11.378 1.422)"/>
    <path id="Vector-2" data-name="Vector" d="M12.658,4.565c-.014,0-.028.007-.043.007-.071.014-.142.021-.22.036a3.307,3.307,0,0,1-.946-.05,2.26,2.26,0,0,1-.235-.064,2.443,2.443,0,0,1-.661-.27,2.88,2.88,0,0,1-.249-.149,3.355,3.355,0,0,1-.868-.868,2.88,2.88,0,0,1-.149-.249,2.443,2.443,0,0,1-.27-.661,2.26,2.26,0,0,1-.064-.235,3.307,3.307,0,0,1-.05-.946c.014-.078.021-.149.036-.22,0-.014.007-.028.007-.043A.711.711,0,0,0,8.249,0H3.925c-.1,0-.2.007-.292.014S3.47.028,3.385.043s-.171.021-.249.036A3.391,3.391,0,0,0,.078,3.136C.064,3.214.05,3.3.043,3.385s-.021.164-.028.249S0,3.826,0,3.925v5.66c0,.1.007.2.014.292s.014.164.028.249.021.171.036.249a3.391,3.391,0,0,0,3.058,3.058c.078.014.164.028.249.036s.164.021.249.028.192.014.292.014h5.66c.1,0,.2-.007.292-.014s.164-.014.249-.028.171-.021.249-.036a3.391,3.391,0,0,0,3.058-3.058c.014-.078.028-.164.036-.249s.021-.164.028-.249.014-.192.014-.292V5.262A.711.711,0,0,0,12.658,4.565Zm-9.28,2.19H6.933a.533.533,0,0,1,0,1.067H3.378a.533.533,0,0,1,0-1.067Zm6.4,3.911h-6.4a.533.533,0,0,1,0-1.067h6.4a.533.533,0,1,1,0,1.067Z" transform="translate(1.422 2.133)"/>
    <path id="Vector-3" data-name="Vector" d="M0,0H17.066V17.066H0Z" transform="translate(17.066 17.066) rotate(180)" fill="none" opacity="0"/>
  </g>
</svg>
