<svg id="vuesax_bold_send-2" data-name="vuesax/bold/send-2" xmlns="http://www.w3.org/2000/svg" width="17.066" height="17.066" viewBox="0 0 17.066 17.066">
  <g id="send-2">
    <path id="Vector" d="M9.659.282,3.237,2.415c-4.316,1.444-4.316,3.8,0,5.234l1.906.633.633,1.906c1.436,4.316,3.8,4.316,5.234,0l2.14-6.414C14.1.894,12.538-.678,9.659.282Zm.228,3.826-2.7,2.716a.532.532,0,0,1-.754,0,.537.537,0,0,1,0-.754l2.7-2.716a.533.533,0,0,1,.754.754Z" transform="translate(1.819 1.823)"/>
    <path id="Vector-2" data-name="Vector" d="M0,0H17.066V17.066H0Z" transform="translate(17.066 17.066) rotate(180)" fill="none" opacity="0"/>
  </g>
</svg>
