<svg id="vuesax_outline_briefcase" data-name="vuesax/outline/briefcase" xmlns="http://www.w3.org/2000/svg" width="15" height="15" viewBox="0 0 15 15">
  <g id="briefcase">
    <path id="Vector" d="M9.064,10.931h-5C1.176,10.931.639,9.588.5,8.281L.033,3.275A2.964,2.964,0,0,1,.6.925,3.651,3.651,0,0,1,3.439,0h6.25a3.656,3.656,0,0,1,2.844.925A2.973,2.973,0,0,1,13.1,3.281l-.469,4.994C12.489,9.588,11.951,10.931,9.064,10.931ZM3.439.931a2.866,2.866,0,0,0-2.15.619A2.022,2.022,0,0,0,.964,3.181l.469,5.006c.106.987.375,1.806,2.631,1.806h5c2.25,0,2.525-.819,2.631-1.812l.469-4.994a2.031,2.031,0,0,0-.325-1.638A2.866,2.866,0,0,0,9.689.931Z" transform="translate(0.936 3.287)"/>
    <path id="Vector-2" data-name="Vector" d="M5.469,3.438A.472.472,0,0,1,5,2.969v-.5C5,1.356,5,.938,3.469.938h-1C.937.938.938,1.356.938,2.469v.5a.472.472,0,0,1-.469.469A.472.472,0,0,1,0,2.969v-.5C0,1.369,0,0,2.469,0h1C5.938,0,5.938,1.369,5.938,2.469v.5A.472.472,0,0,1,5.469,3.438Z" transform="translate(4.531 0.781)"/>
    <path id="Vector-3" data-name="Vector" d="M1.719,3.438C0,3.438,0,2.375,0,1.737V1.094C0,.213.213,0,1.094,0h1.25c.881,0,1.094.213,1.094,1.094v.625C3.438,2.369,3.438,3.438,1.719,3.438ZM.938.938v.8c0,.644,0,.763.781.763s.781-.1.781-.769V.938H.938Z" transform="translate(5.781 7.031)"/>
    <path id="Vector-4" data-name="Vector" d="M.466,2.829A.466.466,0,0,1,0,2.416.471.471,0,0,1,.41,1.891,9.86,9.86,0,0,0,4.972.091.466.466,0,0,1,5.629.2a.471.471,0,0,1-.106.656,10.853,10.853,0,0,1-5,1.975Z" transform="translate(8.284 6.402)"/>
    <path id="Vector-5" data-name="Vector" d="M5.086,2.661H5.03A10.72,10.72,0,0,1,.2.855.468.468,0,0,1,.73.08a9.846,9.846,0,0,0,4.4,1.65.47.47,0,0,1,.413.519A.451.451,0,0,1,5.086,2.661Z" transform="translate(1.164 6.577)"/>
    <path id="Vector-6" data-name="Vector" d="M0,0H15V15H0Z" fill="none" opacity="0"/>
  </g>
</svg>
