<svg id="vuesax_bold_search-normal" data-name="vuesax/bold/search-normal" xmlns="http://www.w3.org/2000/svg" width="13.845" height="13.845" viewBox="0 0 13.845 13.845">
  <g id="search-normal" transform="translate(0 0)">
    <path id="Vector" d="M10.395,5.2A5.2,5.2,0,1,1,5.2,0,5.2,5.2,0,0,1,10.395,5.2Z" transform="translate(1.154 1.154)"/>
    <path id="Vector-2" data-name="Vector" d="M2.3.548A1.208,1.208,0,0,0,1.166,0,1.165,1.165,0,0,0,.2.456,1.171,1.171,0,0,0,.07,1.517c.248.75.681.917.917.946a.662.662,0,0,0,.11.006,1.251,1.251,0,0,0,1.027-.681A1.188,1.188,0,0,0,2.3.548Z" transform="translate(10.382 10.383)"/>
    <path id="Vector-3" data-name="Vector" d="M0,0H13.845V13.845H0Z" transform="translate(13.845 13.845) rotate(180)" fill="none" opacity="0"/>
  </g>
</svg>
