<svg xmlns="http://www.w3.org/2000/svg" width="15" height="15" viewBox="0 0 15 15">
  <g id="vuesax_outline_call" data-name="vuesax/outline/call" transform="translate(-108 -188)">
    <g id="call" transform="translate(108 188)">
      <path id="Vector" d="M10.125,13.437a5.718,5.718,0,0,1-2.219-.494,11.734,11.734,0,0,1-2.244-1.288A19.509,19.509,0,0,1,3.556,9.862a18.672,18.672,0,0,1-1.794-2.1A11.664,11.664,0,0,1,.487,5.537,5.787,5.787,0,0,1,0,3.306,3.766,3.766,0,0,1,.256,1.925,3.338,3.338,0,0,1,1.094.712,2.27,2.27,0,0,1,2.713,0a1.69,1.69,0,0,1,.706.156,1.43,1.43,0,0,1,.6.506l1.45,2.044a2.421,2.421,0,0,1,.3.531,1.4,1.4,0,0,1,.125.556,1.326,1.326,0,0,1-.2.687,2.5,2.5,0,0,1-.419.531l-.425.444a.3.3,0,0,0,.019.044,4.806,4.806,0,0,0,.512.694c.306.35.594.669.881.962.369.362.675.65.962.888a4.071,4.071,0,0,0,.725.519l-.013.031.456-.45a2.334,2.334,0,0,1,.563-.431,1.319,1.319,0,0,1,1.219-.069,2.845,2.845,0,0,1,.525.294l2.075,1.475a1.343,1.343,0,0,1,.5.594,1.809,1.809,0,0,1,.137.675,2.084,2.084,0,0,1-.2.881,2.911,2.911,0,0,1-.5.75,3.206,3.206,0,0,1-1.194.856A3.69,3.69,0,0,1,10.125,13.437ZM2.713.938a1.37,1.37,0,0,0-.969.45,2.4,2.4,0,0,0-.613.881A2.735,2.735,0,0,0,.938,3.306,4.819,4.819,0,0,0,1.35,5.169,10.433,10.433,0,0,0,2.525,7.206,17.291,17.291,0,0,0,4.219,9.194a17.6,17.6,0,0,0,1.994,1.7,10.155,10.155,0,0,0,2.056,1.181,3.728,3.728,0,0,0,2.894.219,2.307,2.307,0,0,0,.856-.619,2.027,2.027,0,0,0,.35-.525,1.107,1.107,0,0,0,.112-.481.746.746,0,0,0-.069-.312.473.473,0,0,0-.175-.187L10.162,8.694A1.792,1.792,0,0,0,9.819,8.5a.329.329,0,0,0-.406.019A1.425,1.425,0,0,0,9.05,8.8l-.475.469a.891.891,0,0,1-.906.187L7.5,9.381a5.328,5.328,0,0,1-.888-.631c-.3-.256-.625-.556-1.019-.944-.306-.312-.612-.644-.931-1.012a5.333,5.333,0,0,1-.637-.881L3.95,5.725a1.167,1.167,0,0,1-.05-.313.8.8,0,0,1,.238-.581l.469-.487a1.81,1.81,0,0,0,.281-.35.4.4,0,0,0,.069-.212.581.581,0,0,0-.05-.2,1.793,1.793,0,0,0-.2-.331L3.256,1.2a.576.576,0,0,0-.231-.194A.783.783,0,0,0,2.713.938ZM7.937,8.6l-.1.425.169-.438A.077.077,0,0,0,7.937,8.6Z" transform="translate(0.781 0.781)"/>
      <path id="Vector-2" data-name="Vector" d="M0,0H15V15H0Z" fill="none" opacity="0"/>
    </g>
  </g>
</svg>
