<svg id="vuesax_bold_message-text" data-name="vuesax/bold/message-text" xmlns="http://www.w3.org/2000/svg" width="17.066" height="17.066" viewBox="0 0 17.066 17.066">
  <g id="message-text">
    <path id="Vector" d="M10.667,0H3.556A3.549,3.549,0,0,0,0,3.541V8.5a3.549,3.549,0,0,0,3.556,3.541H4.622a.817.817,0,0,1,.569.284l1.067,1.415a1.01,1.01,0,0,0,1.707,0L9.031,12.33a.721.721,0,0,1,.569-.284h1.067A3.549,3.549,0,0,0,14.222,8.5V3.541A3.549,3.549,0,0,0,10.667,0ZM7.822,8.355H3.556a.533.533,0,0,1,0-1.067H7.822a.533.533,0,1,1,0,1.067ZM10.667,4.8H3.556a.533.533,0,1,1,0-1.067h7.111a.533.533,0,0,1,0,1.067Z" transform="translate(1.422 1.422)"/>
    <path id="Vector-2" data-name="Vector" d="M0,0H17.066V17.066H0Z" fill="none" opacity="0"/>
    <path id="Vector-3" data-name="Vector" d="M0,0H17.066V17.066H0Z" transform="translate(17.066 17.066) rotate(180)" fill="none" opacity="0"/>
  </g>
</svg>
