<svg xmlns="http://www.w3.org/2000/svg" width="15.811" height="15.811" viewBox="0 0 15.811 15.811">
  <g id="vuesax_bold_airplane" data-name="vuesax/bold/airplane" transform="translate(232.624 6.257) rotate(120)">
    <g id="airplane" transform="translate(108 188)">
      <path id="Vector" d="M8.314,4.163,6.062,3.194l-.5-.212a.282.282,0,0,1-.145-.227V1.279A1.517,1.517,0,0,0,4.659.054a.521.521,0,0,0-.463,0,1.532,1.532,0,0,0-.752,1.23V2.76a.282.282,0,0,1-.145.227L.55,4.168A.98.98,0,0,0,0,5v.637a.457.457,0,0,0,.69.449L3.106,5.046a.228.228,0,0,1,.342.227v1.4a.571.571,0,0,1-.14.347L2.189,8.147a.546.546,0,0,0-.116.506l.217.656a.478.478,0,0,0,.675.285l1.148-.965a.5.5,0,0,1,.632,0l1.148.965a.493.493,0,0,0,.685-.285L6.8,8.653a.549.549,0,0,0-.116-.506L5.561,7.023a.549.549,0,0,1-.145-.347v-1.4a.228.228,0,0,1,.342-.227L8.174,6.087a.457.457,0,0,0,.69-.449V5A.993.993,0,0,0,8.314,4.163Z" transform="translate(1.355 0.963)"/>
      <path id="Vector-2" data-name="Vector" d="M0,0H11.574V11.574H0Z" transform="translate(11.574 11.574) rotate(180)" fill="none" opacity="0"/>
    </g>
  </g>
</svg>
