<svg xmlns="http://www.w3.org/2000/svg" width="15" height="15" viewBox="0 0 15 15">
  <g id="vuesax_outline_award" data-name="vuesax/outline/award" transform="translate(-428 -188)">
    <g id="award" transform="translate(428 188)">
      <path id="Vector" d="M5.306,11.564a2.151,2.151,0,0,1-1.044-.256L1.306,9.6C.081,8.777,0,8.627,0,7.333v-3.1c0-1.294.081-1.444,1.281-2.25L4.269.258a2.229,2.229,0,0,1,2.081,0L9.306,1.964c1.225.825,1.306.975,1.306,2.269v3.1c0,1.294-.081,1.444-1.281,2.25L6.344,11.308A2.061,2.061,0,0,1,5.306,11.564Zm0-10.625a1.184,1.184,0,0,0-.575.131L1.775,2.777c-.837.569-.837.569-.837,1.456v3.1c0,.887,0,.888.869,1.475L4.737,10.5a1.311,1.311,0,0,0,1.144,0L8.837,8.789c.837-.569.837-.569.837-1.456v-3.1c0-.887,0-.888-.869-1.475L5.875,1.07A1.142,1.142,0,0,0,5.306.939Z" transform="translate(2.194 2.655)"/>
      <path id="Vector-2" data-name="Vector" d="M7.344,4.456a.472.472,0,0,1-.469-.469V2.344c0-.987-.419-1.406-1.406-1.406H2.344C1.356.938.938,1.356.938,2.344v1.6a.469.469,0,1,1-.937,0v-1.6A2.113,2.113,0,0,1,2.344,0H5.469A2.113,2.113,0,0,1,7.812,2.344V3.987A.472.472,0,0,1,7.344,4.456Z" transform="translate(3.594 0.781)"/>
      <path id="Vector-3" data-name="Vector" d="M3.537,4.85a1.07,1.07,0,0,1-.406-.081l-.612-.237-.612.244a.949.949,0,0,1-.919-.081.959.959,0,0,1-.362-.85l.037-.656L.243,2.681a.952.952,0,0,1-.2-.906.943.943,0,0,1,.694-.606l.638-.163L1.731.45a.92.92,0,0,1,1.581,0l.356.556.637.163A.943.943,0,0,1,5,1.775a.96.96,0,0,1-.206.9l-.419.506.037.656a.966.966,0,0,1-.362.85A.877.877,0,0,1,3.537,4.85ZM.968,2.081l.419.506a1,1,0,0,1,.213.656L1.562,3.9l.612-.244a1,1,0,0,1,.688,0l.612.244-.037-.656a1.009,1.009,0,0,1,.213-.656l.419-.506-.637-.163a1.031,1.031,0,0,1-.556-.4l-.35-.55-.356.55a1.011,1.011,0,0,1-.556.406Z" transform="translate(4.982 6.169)"/>
      <path id="Vector-4" data-name="Vector" d="M0,0H15V15H0Z" fill="none" opacity="0"/>
    </g>
  </g>
</svg>
