<svg xmlns="http://www.w3.org/2000/svg" xmlns:xlink="http://www.w3.org/1999/xlink" width="19.244" height="19.692" viewBox="0 0 19.244 19.692">
  <defs>
    <clipPath id="clip-path">
      <path id="Path_32" data-name="Path 32" d="M21.02,10.056H11.846v3.8h5.281c-.492,2.417-2.551,3.8-5.281,3.8a5.818,5.818,0,0,1,0-11.636,5.692,5.692,0,0,1,3.625,1.3l2.864-2.864a9.84,9.84,0,1,0-6.489,17.23c4.923,0,9.4-3.58,9.4-9.846A8.168,8.168,0,0,0,21.02,10.056Z" transform="translate(-2 -2)"/>
    </clipPath>
  </defs>
  <g id="_1534129544" data-name="1534129544" transform="translate(-2 -2)">
    <g id="Group_461" data-name="Group 461" transform="translate(2 2)" clip-path="url(#clip-path)">
      <path id="Path_31" data-name="Path 31" d="M0,22.636V11l7.608,5.818Z" transform="translate(-0.895 -6.972)" fill="#fbbc05"/>
    </g>
    <g id="Group_462" data-name="Group 462" transform="translate(2 2)" clip-path="url(#clip-path)">
      <path id="Path_33" data-name="Path 33" d="M0,4.923l7.608,5.818,3.133-2.73L21.482,6.266V0H0Z" transform="translate(-0.895 -0.895)" fill="#ea4335"/>
    </g>
    <g id="Group_463" data-name="Group 463" transform="translate(2 2)" clip-path="url(#clip-path)">
      <path id="Path_35" data-name="Path 35" d="M0,16.559,13.426,6.266l3.536.448L21.482,0V21.482H0Z" transform="translate(-0.895 -0.895)" fill="#34a853"/>
    </g>
    <g id="Group_464" data-name="Group 464" transform="translate(2 2)" clip-path="url(#clip-path)">
      <path id="Path_37" data-name="Path 37" d="M28.664,27.559,14.79,16.818,13,15.475,28.664,11Z" transform="translate(-8.077 -6.972)" fill="#4285f4"/>
    </g>
  </g>
</svg>
