<svg id="vuesax_outline_frame" data-name="vuesax/outline/frame" xmlns="http://www.w3.org/2000/svg" width="17" height="17" viewBox="0 0 17 17">
  <g id="frame" transform="translate(0 0)">
    <path id="Vector" d="M3.79,7.345H3.733a.384.384,0,0,0-.128,0,3.644,3.644,0,1,1,.205,0ZM3.676,1.063a2.611,2.611,0,0,0-.1,5.22,1.169,1.169,0,0,1,.227,0,2.612,2.612,0,0,0-.128-5.22Z" transform="translate(4.823 0.885)" fill="#96a0b5"/>
    <path id="Vector-2" data-name="Vector" d="M0,0H17V17H0Z" fill="none" opacity="0"/>
    <path id="Vector-3" data-name="Vector" d="M5.362,7.163A7,7,0,0,1,1.523,6.1,3.04,3.04,0,0,1,0,3.586,3.071,3.071,0,0,1,1.523,1.057a7.5,7.5,0,0,1,7.678,0,3.056,3.056,0,0,1,1.523,2.515A3.071,3.071,0,0,1,9.2,6.1,7.014,7.014,0,0,1,5.362,7.163ZM2.111,1.95A2.037,2.037,0,0,0,1.062,3.593,2.032,2.032,0,0,0,2.111,5.222a6.4,6.4,0,0,0,6.5,0A2.037,2.037,0,0,0,9.662,3.579,2.032,2.032,0,0,0,8.613,1.95,6.434,6.434,0,0,0,2.111,1.95Z" transform="translate(3.258 8.81)" fill="#96a0b5"/>
  </g>
</svg>
