<svg xmlns="http://www.w3.org/2000/svg" width="44.789" height="44.789" viewBox="0 0 44.789 44.789">
  <g id="vuesax_outline_sms-notification" data-name="vuesax/outline/sms-notification" transform="translate(-684 -252)">
    <g id="sms-notification" transform="translate(684 252)">
      <path id="Vector" d="M29.393,34.525H10.731C3.919,34.525,0,30.606,0,23.794V10.731C0,3.919,3.919,0,10.731,0H23.794a1.41,1.41,0,0,1,1.4,1.4,1.41,1.41,0,0,1-1.4,1.4H10.731C5.393,2.8,2.8,5.393,2.8,10.731V23.794c0,5.337,2.594,7.931,7.931,7.931H29.393c5.337,0,7.931-2.594,7.931-7.931V14.463a1.4,1.4,0,1,1,2.8,0v9.331C40.123,30.606,36.2,34.525,29.393,34.525Z" transform="translate(2.333 5.132)" fill="#121f3e"/>
      <path id="Vector-2" data-name="Vector" d="M10.736,8.627A6.937,6.937,0,0,1,6.369,7.153L.528,2.487A1.395,1.395,0,0,1,2.263.3L8.1,4.969a4.453,4.453,0,0,0,5.244,0l2.2-1.754A1.395,1.395,0,1,1,17.286,5.4l-2.2,1.754A6.849,6.849,0,0,1,10.736,8.627Z" transform="translate(11.658 15.391)" fill="#121f3e"/>
      <path id="Vector-3" data-name="Vector" d="M6.065,12.13A6.065,6.065,0,1,1,12.13,6.065,6.077,6.077,0,0,1,6.065,12.13Zm0-9.331A3.266,3.266,0,1,0,9.331,6.065,3.281,3.281,0,0,0,6.065,2.8Z" transform="translate(30.326 4.199)" fill="#ff4040"/>
      <path id="Vector-4" data-name="Vector" d="M0,0H44.789V44.789H0Z" fill="none" opacity="0"/>
    </g>
  </g>
</svg>
