<svg xmlns="http://www.w3.org/2000/svg" width="42.393" height="42.393" viewBox="0 0 42.393 42.393">
  <g id="vuesax_outline_key" data-name="vuesax/outline/key" transform="translate(-684 -188)">
    <g id="key" transform="translate(684 188)">
      <path id="Vector" d="M8.707,37.952a5,5,0,0,1-.53-.035l-3.833-.53a4.638,4.638,0,0,1-3.78-3.762l-.53-3.868A4.872,4.872,0,0,1,1.27,26.012l7.754-7.754A14.722,14.722,0,1,1,19.711,28.909l-7.772,7.754A4.756,4.756,0,0,1,8.707,37.952ZM23.279,2.643A12.048,12.048,0,0,0,11.762,18.258a1.317,1.317,0,0,1-.336,1.325l-8.3,8.3a2.281,2.281,0,0,0-.495,1.484l.53,3.868a2.025,2.025,0,0,0,1.5,1.519l3.851.53a2.189,2.189,0,0,0,1.5-.477l8.337-8.32a1.318,1.318,0,0,1,1.325-.318A12.045,12.045,0,0,0,31.758,6.158,11.882,11.882,0,0,0,23.279,2.643Z" transform="translate(2.209 2.232)" fill="#121f3e"/>
      <path id="Vector-2" data-name="Vector" d="M5.383,6.708a1.31,1.31,0,0,1-.936-.389L.384,2.257A1.324,1.324,0,0,1,2.257.384L6.319,4.447a1.333,1.333,0,0,1,0,1.872A1.31,1.31,0,0,1,5.383,6.708Z" transform="translate(10.85 29.573)" fill="#121f3e"/>
      <path id="Vector-3" data-name="Vector" d="M3.974,7.949A3.974,3.974,0,1,1,7.949,3.974,3.98,3.98,0,0,1,3.974,7.949Zm0-5.3A1.325,1.325,0,1,0,5.3,3.974,1.334,1.334,0,0,0,3.974,2.65Z" transform="translate(21.638 12.806)" fill="#59dc7c"/>
      <path id="Vector-4" data-name="Vector" d="M0,0H42.393V42.393H0Z" fill="none" opacity="0"/>
    </g>
  </g>
</svg>
