<svg id="vuesax_outline_sms" data-name="vuesax/outline/sms" xmlns="http://www.w3.org/2000/svg" width="17" height="17" viewBox="0 0 17 17">
  <g id="sms" transform="translate(0)">
    <path id="Vector" d="M11.156,13.1H4.073A3.71,3.71,0,0,1,0,9.031V4.073A3.71,3.71,0,0,1,4.073,0h7.083a3.71,3.71,0,0,1,4.073,4.073V9.031A3.71,3.71,0,0,1,11.156,13.1ZM4.073,1.063c-2.026,0-3.01.985-3.01,3.01V9.031c0,2.026.985,3.01,3.01,3.01h7.083c2.026,0,3.01-.985,3.01-3.01V4.073c0-2.026-.985-3.01-3.01-3.01Z" transform="translate(0.885 1.948)" fill="#96a0b5"/>
    <path id="Vector-2" data-name="Vector" d="M4.075,3.277a2.633,2.633,0,0,1-1.657-.56L.2.946A.529.529,0,0,1,.859.117L3.076,1.888a1.69,1.69,0,0,0,1.99,0L7.284.117A.523.523,0,0,1,8.027.2a.523.523,0,0,1-.085.744L5.725,2.717A2.6,2.6,0,0,1,4.075,3.277Z" transform="translate(4.425 5.84)" fill="#96a0b5"/>
    <path id="Vector-3" data-name="Vector" d="M0,0H17V17H0Z" fill="none" opacity="0"/>
  </g>
</svg>
