<svg id="vuesax_outline_eye" data-name="vuesax/outline/eye" xmlns="http://www.w3.org/2000/svg" width="16.414" height="16.414" viewBox="0 0 16.414 16.414">
  <g id="eye">
    <path id="Vector" d="M2.961,5.923A2.961,2.961,0,1,1,5.923,2.961,2.963,2.963,0,0,1,2.961,5.923Zm0-4.9A1.935,1.935,0,1,0,4.9,2.961,1.938,1.938,0,0,0,2.961,1.026Z" transform="translate(5.246 5.246)" fill="#96a0b5"/>
    <path id="Vector-2" data-name="Vector" d="M7.212,12.338A8.073,8.073,0,0,1,.544,8.221a4.143,4.143,0,0,1,0-4.1A8.091,8.091,0,0,1,7.212,0a8.072,8.072,0,0,1,6.661,4.117,4.143,4.143,0,0,1,0,4.1A8.072,8.072,0,0,1,7.212,12.338Zm0-11.312a7.064,7.064,0,0,0-5.8,3.645,3.108,3.108,0,0,0,0,3,7.064,7.064,0,0,0,5.8,3.645,7.064,7.064,0,0,0,5.8-3.645,3.108,3.108,0,0,0,0-3A7.064,7.064,0,0,0,7.212,1.026Z" transform="translate(0.995 2.038)" fill="#96a0b5"/>
    <path id="Vector-3" data-name="Vector" d="M0,0H16.414V16.414H0Z" fill="none" opacity="0"/>
  </g>
</svg>
