<svg xmlns="http://www.w3.org/2000/svg" width="16.414" height="16.414" viewBox="0 0 16.414 16.414">
  <g id="vuesax_outline_eye-slash" data-name="vuesax/outline/eye-slash" transform="translate(-172 -188)">
    <g id="eye-slash" transform="translate(172 188)">
      <path id="Vector" d="M1.231,5.2a.507.507,0,0,1-.362-.15A2.96,2.96,0,1,1,5.054.869a.512.512,0,0,1,0,.725L1.594,5.054A.507.507,0,0,1,1.231,5.2Zm1.73-4.179A1.936,1.936,0,0,0,1.279,3.919l2.64-2.64A1.926,1.926,0,0,0,2.961,1.026Z" transform="translate(5.246 5.246)" fill="#96a0b5"/>
      <path id="Vector-2" data-name="Vector" d="M2.828,10.621a.521.521,0,0,1-.335-.123A9.926,9.926,0,0,1,.544,8.221a4.143,4.143,0,0,1,0-4.1A8.072,8.072,0,0,1,7.205,0a7.123,7.123,0,0,1,4.288,1.5.513.513,0,0,1-.616.821A6.086,6.086,0,0,0,7.205,1.026a7.064,7.064,0,0,0-5.8,3.645,3.108,3.108,0,0,0,0,3A9.39,9.39,0,0,0,3.156,9.718a.517.517,0,0,1,.055.725A.5.5,0,0,1,2.828,10.621Z" transform="translate(1.002 2.038)" fill="#96a0b5"/>
      <path id="Vector-3" data-name="Vector" d="M2.967,9.465A6.753,6.753,0,0,1,.314,8.918a.512.512,0,0,1,.4-.944,5.74,5.74,0,0,0,2.25.465,7.064,7.064,0,0,0,5.8-3.645,3.108,3.108,0,0,0,0-3A9.742,9.742,0,0,0,8.069.841.519.519,0,0,1,8.144.116a.513.513,0,0,1,.725.075,10.869,10.869,0,0,1,.759,1.053,4.143,4.143,0,0,1,0,4.1A8.072,8.072,0,0,1,2.967,9.465Z" transform="translate(5.24 4.911)" fill="#96a0b5"/>
      <path id="Vector-4" data-name="Vector" d="M.516,2.949A.518.518,0,0,1,.01,2.531a.5.5,0,0,1,.41-.6A1.929,1.929,0,0,0,1.938.418a.519.519,0,0,1,.6-.41.514.514,0,0,1,.41.6A2.939,2.939,0,0,1,.611,2.949.448.448,0,0,0,.516,2.949Z" transform="translate(8.163 8.179)" fill="#96a0b5"/>
      <path id="Vector-5" data-name="Vector" d="M.511,6.133a.507.507,0,0,1-.362-.15.516.516,0,0,1,0-.725L5.258.149a.513.513,0,0,1,.725.725L.874,5.983A.507.507,0,0,1,.511,6.133Z" transform="translate(0.857 9.426)" fill="#96a0b5"/>
      <path id="Vector-6" data-name="Vector" d="M.511,6.133a.507.507,0,0,1-.362-.15.516.516,0,0,1,0-.725L5.258.149a.513.513,0,0,1,.725.725L.874,5.983A.507.507,0,0,1,.511,6.133Z" transform="translate(9.426 0.857)" fill="#96a0b5"/>
      <path id="Vector-7" data-name="Vector" d="M0,0H16.414V16.414H0Z" fill="none" opacity="0"/>
    </g>
  </g>
</svg>
